<svg width="750" height="750" viewBox="0 0 750 750" fill="none" xmlns="http://www.w3.org/2000/svg">
<path d="M231.131 90.2928C279.037 40.7036 351.393 14.7834 421.898 43.8162L421.897 43.8172C425.232 45.1827 428.607 46.5327 432.072 47.9139L432.081 47.9168L432.09 47.9207C435.603 49.3234 439.1 50.7322 442.561 52.1297L442.56 52.1307L447.607 54.1561L447.62 54.161L447.632 54.1659C485.764 69.4419 517.281 94.0973 535.771 134.841L536.643 136.793L536.726 136.983L536.807 137.175C559.495 190.975 557.855 250.454 536.977 303.198L536.873 303.46L536.765 303.719C528.723 322.971 517.769 340.656 508.813 355.586C504.977 361.988 501.203 368.491 497.388 375.132L497.383 375.14C492.593 383.472 487.769 391.809 482.899 400.139C477.351 409.63 471.842 419.167 466.32 428.756L466.314 428.765C463.363 433.887 460.295 439.208 457.138 444.518C456.447 445.691 455.786 446.835 455.152 447.959L455.124 448.011L455.095 448.061C452.103 453.323 448.928 458.104 445.625 462.649C438.098 473.561 436.935 482.917 437.225 503.895L437.301 508.267L437.303 508.32L437.304 508.374C437.397 513.893 437.388 519.398 437.39 524.513L437.416 531.808C437.442 536.677 437.485 541.555 437.538 546.446L437.626 553.794V553.8C437.811 568.408 437.892 582.99 437.954 597.484C437.956 598.005 437.965 600.169 437.968 600.722V600.724C437.977 602.855 437.986 604.985 437.994 607.115L438.02 611.688C438.04 614.738 438.067 617.788 438.101 620.84L438.156 625.418V625.44C438.205 629.353 438.236 633.249 438.265 637.095L438.294 639.626C438.305 640.468 438.319 641.31 438.334 642.149V642.158C438.723 664.063 435.182 692.527 413.87 715.223L412.946 716.206L411.939 717.102C407.058 721.445 400.979 725.889 393.2 728.885C385.252 731.946 377.394 732.784 369.837 732.466L368.108 732.392L366.399 732.121C355.621 730.41 347.635 725.803 343.132 723.194L341.674 722.378C340.188 721.557 338.603 720.713 336.777 719.744L336.757 719.733L336.735 719.721C320.761 711.209 307.729 704.499 299.38 697.294C287.081 686.681 283.815 674.649 281.412 667.096L281.258 666.609L281.119 666.118C276.814 650.803 276.623 636.941 276.774 625.078C276.787 623.262 276.797 621.445 276.807 619.628V619.612C276.829 615.635 276.86 611.664 276.896 607.699C276.95 601.571 276.971 595.421 276.984 589.207V589.201C276.989 587.058 276.995 584.914 277 582.77C277.003 581.693 277.005 580.631 277.008 579.521V579.515C277.045 564.987 277.109 550.421 277.244 535.834L277.303 528.551C277.353 521.269 277.376 513.99 277.37 506.714V506.703C277.368 501.442 277.389 496.096 277.472 490.703C277.542 486.084 277.554 481.439 277.522 476.752V476.661L277.521 476.571C277.52 474.55 277.544 472.511 277.597 470.457C277.638 468.717 277.61 467.619 277.564 466.908C276.32 465.617 275.065 464.363 273.779 463.135L273.757 463.112L273.733 463.091C271.087 460.55 268.789 458.013 267.035 456.047C266.137 455.09 265.24 454.138 264.343 453.19L264.29 453.136L264.237 453.08C260.253 448.829 256.122 444.34 252.038 439.612L250.658 438.04C249.262 436.46 247.806 434.847 246.234 433.106L246.228 433.098C242.867 429.374 239.556 425.63 236.283 421.869C234.447 419.782 232.552 417.702 230.439 415.382L230.367 415.302C225.939 410.402 221.883 405.462 218.189 400.889C216.492 398.858 214.603 396.786 212.297 394.326L212.187 394.21L212.079 394.092C200.7 381.686 191.143 368.143 183.069 354.085C182.425 352.987 181.778 351.889 181.114 350.759L181.025 350.608L180.939 350.458C173.727 337.849 168.953 325.091 165.281 312.671L165.28 312.672C165.053 311.919 164.826 311.166 164.592 310.39L164.527 310.178L164.467 309.964C149.958 259.21 162.289 202.258 181.802 160.34C182.136 159.618 182.47 158.896 182.814 158.152L182.84 158.097L182.866 158.042C193.995 134.251 209.17 113.02 227.016 94.6102C228.264 93.3212 229.521 91.9928 230.907 90.5262L231.019 90.409L231.131 90.2928ZM410.476 71.5565C353.944 48.2778 294.205 68.1809 252.707 111.137C251.329 112.594 249.952 114.051 248.557 115.491L247.088 117.02C231.992 132.893 219.331 150.89 210.04 170.753L209 173C191.288 211.052 181.47 260.297 193.311 301.719C193.546 302.494 193.773 303.247 194 304C197.261 315.061 201.247 325.539 206.98 335.562L209 339C216.148 351.468 224.465 363.213 234.187 373.812C236.63 376.418 239.018 379.021 241.305 381.765C244.989 386.33 248.691 390.834 252.625 395.187C254.698 397.464 256.77 399.739 258.805 402.051C262.005 405.73 265.233 409.38 268.5 413C270.572 415.295 272.642 417.589 274.672 419.922C278.392 424.231 282.232 428.41 286.125 432.562C287.13 433.624 288.133 434.688 289.133 435.754C290.873 437.709 292.619 439.634 294.508 441.447C296.263 443.125 297.969 444.833 299.646 446.589C306.699 454.417 307.836 460.922 307.587 471.223C307.541 472.999 307.52 474.775 307.521 476.551C307.554 481.422 307.542 486.289 307.468 491.16C307.389 496.337 307.368 501.512 307.37 506.689C307.378 516.497 307.334 526.304 307.243 536.112L307.154 546.982C307.078 557.852 307.035 568.722 307.008 579.593L307 582.843C306.995 584.986 306.989 587.129 306.984 589.272L306.955 598.624C306.941 601.741 306.922 604.859 306.895 607.976C306.858 611.911 306.829 615.846 306.807 619.78L306.774 625.299C306.627 636.657 306.9 646.971 310 658C315.165 674.234 315.165 674.234 350.844 693.246C353.232 694.514 355.615 695.781 357.965 697.118C362.28 699.618 366.14 701.705 371.102 702.492C379.888 702.863 385.524 700.448 392 694.687C404.994 680.849 408.46 662.707 408.359 644.457L408.339 642.691C408.307 640.921 408.283 639.15 408.267 637.38C408.238 633.523 408.206 629.667 408.158 625.81C408.077 619.623 408.023 613.436 407.995 607.248L407.955 597.613C407.901 584.945 407.832 572.277 407.692 559.609L407.629 554.18C407.502 544.308 407.407 534.438 407.39 524.565C407.388 519.99 407.393 515.415 407.336 510.841L407.308 508.881C406.813 484.691 406.918 465.815 421.063 445.422C423.778 441.71 426.262 437.991 428.56 434.028L429.017 433.232C429.76 431.913 430.519 430.601 431.287 429.296C433.581 425.439 435.836 421.559 438.08 417.673L440.322 413.786C445.856 404.176 451.404 394.574 457 385C461.824 376.748 466.611 368.474 471.375 360.187C475.227 353.482 479.107 346.797 483.082 340.164C492.429 324.581 502.061 308.965 509.082 292.156C527.352 246.003 528.512 194.711 509.164 148.832C494.631 115.662 469.629 95.2957 436.476 82.0145L431.328 79.9481C427.876 78.5542 424.423 77.1624 420.966 75.7821C417.464 74.3863 413.964 72.9853 410.476 71.5565Z" fill="white"/>
<path d="M424.77 454.651C434.91 450.958 444.69 450.211 454.368 452.025C462.565 453.562 469.885 456.903 474.209 458.827L477.556 460.264L477.606 460.286L477.656 460.307C480.974 461.748 483.816 462.981 486.052 463.997C488.114 464.934 490.782 466.183 493.309 467.699C496.211 469.44 499.885 472.083 503.218 476.221C505.344 478.863 506.831 481.591 507.476 482.859L507.833 483.584L510.614 489.146L510.955 495.355C511.285 501.364 511.314 507.271 511.349 512.289L511.379 514.702C511.392 515.505 511.407 516.308 511.425 517.111V517.115C511.482 519.716 511.504 522.269 511.519 524.688C511.538 525.361 511.559 526.037 511.579 526.73L511.594 527.232L511.592 527.733C511.57 533.343 510.769 539.784 507.985 546.459C507.351 547.98 506.651 549.419 505.903 550.783C506.859 552.453 507.574 553.945 508.09 555.087L508.464 555.927L510.332 560.176L510.828 564.792C511.212 568.363 511.416 571.839 511.397 575.632L511.407 577.862V577.94C511.409 579.573 511.403 581.204 511.39 582.832L511.391 582.833C511.376 584.951 511.39 587.114 511.409 589.475L511.41 589.617V589.758C511.408 591.225 511.404 592.693 511.398 594.162C511.404 594.807 511.41 595.454 511.416 596.119L511.419 596.462L511.414 596.805C511.365 600.223 511.088 605.197 509.409 610.735C507.629 616.607 504.806 621.42 501.637 625.475L498.371 629.653L493.871 632.458C483.038 639.211 470.256 642.703 464.795 644.494C462.613 645.21 460.419 645.94 458.18 646.686L458.146 646.698L458.112 646.709C444.228 651.301 430.258 655.54 416.822 659.674L378 671.619V472.21L413.466 458.91C415.078 458.298 416.691 457.686 418.352 457.055L418.47 457.01L418.589 456.966C419.866 456.493 421.146 456.021 422.427 455.549C423.216 455.245 423.292 455.215 424.237 454.85L424.502 454.748L424.77 454.651ZM408 631C421.605 626.814 435.185 622.694 448.691 618.226C450.941 617.476 453.191 616.728 455.444 615.989C463.123 613.471 471.108 611.296 478 607C480.537 603.753 481.265 601.103 481.397 597.18L481.417 596.378C481.411 595.654 481.405 594.952 481.398 594.25C481.404 592.739 481.408 591.229 481.41 589.718C481.391 587.355 481.376 584.992 481.392 582.629C481.398 581.854 481.402 581.079 481.404 580.304L481.407 577.979C481.404 577.221 481.401 576.485 481.398 575.75C481.421 573.089 481.287 570.665 481 568C479.664 564.962 478.692 563.453 475.919 561.638C475.111 561.29 474.327 560.951 473.543 560.613L470.92 559.459L468.188 558.312C463.619 556.311 459.074 554.375 454.363 552.73L452 552L453 549C458.396 545.679 464.204 543.863 470.375 542.625C473.273 542.164 473.273 542.164 476 541C480.02 536.988 481.57 533.242 481.592 527.617C481.568 526.827 481.546 526.06 481.523 525.293C481.512 523.412 481.498 521.533 481.468 519.654L481.433 517.774C481.394 516.041 481.367 514.308 481.351 512.575C481.314 507.379 481.285 502.188 481 497C479.381 493.762 479.381 493.762 465.709 487.826L462.188 486.312C452.353 481.943 445.479 479.036 435.035 482.84L433 483.625C431.666 484.116 430.333 484.608 429 485.101L424 487L408 493V631Z" fill="white"/>
<path d="M410.476 71.5567C413.964 72.9855 417.464 74.3862 420.966 75.782C424.423 77.1623 427.876 78.5538 431.328 79.9477C433.043 80.6392 434.759 81.3282 436.476 82.0143C469.629 95.2955 494.631 115.662 509.164 148.832C528.512 194.711 527.352 246.003 509.082 292.156C502.061 308.966 492.429 324.581 483.082 340.164C479.107 346.797 475.227 353.482 471.375 360.188C466.611 368.475 461.824 376.748 457 385C451.404 394.574 445.856 404.175 440.322 413.786C437.334 418.97 434.346 424.153 431.287 429.296C430.518 430.601 429.76 431.913 429.016 433.232C426.592 437.495 423.959 441.463 421.063 445.422C406.918 465.815 406.813 484.691 407.307 508.881C407.396 514.109 407.387 519.336 407.389 524.565C407.407 534.438 407.501 544.308 407.628 554.18C407.812 568.657 407.893 583.135 407.955 597.613C407.959 598.681 407.964 599.75 407.968 600.851C407.977 602.983 407.986 605.116 407.995 607.248C408.022 613.436 408.078 619.623 408.159 625.81C408.206 629.667 408.238 633.523 408.266 637.38C408.283 639.15 408.307 640.921 408.339 642.691C408.673 661.532 405.414 680.403 392 694.688C385.524 700.448 379.888 702.863 371.102 702.492C366.14 701.705 362.28 699.618 357.965 697.118C355.615 695.781 353.232 694.514 350.844 693.246C315.165 674.234 315.165 674.234 310 658C306.9 646.971 306.626 636.657 306.774 625.299C306.786 623.459 306.797 621.62 306.806 619.78C306.828 615.845 306.859 611.911 306.895 607.976C306.95 601.742 306.971 595.507 306.984 589.272C306.989 587.129 306.995 584.986 307 582.842C307.002 581.77 307.005 580.697 307.007 579.592C307.044 565.098 307.109 550.605 307.243 536.112C307.334 526.304 307.378 516.498 307.37 506.689C307.368 501.512 307.389 496.337 307.468 491.16C307.542 486.289 307.555 481.422 307.522 476.55C307.521 474.775 307.541 472.999 307.587 471.224C307.836 460.923 306.7 454.416 299.647 446.589C297.969 444.833 296.263 443.125 294.507 441.447C292.619 439.634 290.873 437.709 289.133 435.754C288.133 434.688 287.13 433.624 286.125 432.563C282.232 428.41 278.392 424.231 274.672 419.922C272.642 417.589 270.572 415.295 268.5 413C265.233 409.38 262.005 405.73 258.805 402.051C256.77 399.739 254.698 397.465 252.625 395.188C248.691 390.835 244.989 386.33 241.305 381.766C239.018 379.022 236.63 376.419 234.188 373.813C224.465 363.213 216.148 351.468 209 339C208.334 337.866 207.667 336.731 206.98 335.563C201.247 325.539 197.261 315.061 194 304C193.773 303.247 193.545 302.494 193.311 301.718C181.47 260.296 191.288 211.052 209 173C209.343 172.259 209.686 171.517 210.04 170.753C219.631 150.249 232.812 131.733 248.556 115.491C249.951 114.05 251.329 112.594 252.707 111.137C294.205 68.181 353.944 48.2779 410.476 71.5567Z" fill="#EF4134"/>
<path d="M462.188 486.313C463.35 486.812 464.512 487.312 465.709 487.826C479.381 493.762 479.381 493.762 481 497C481.285 502.189 481.314 507.379 481.35 512.574C481.367 514.308 481.394 516.041 481.432 517.774C481.487 520.28 481.509 522.786 481.523 525.293C481.546 526.06 481.569 526.827 481.592 527.617C481.57 533.242 480.02 536.988 476 541C473.273 542.164 473.273 542.164 470.375 542.625C464.204 543.864 458.396 545.679 453 549C452.505 550.485 452.505 550.485 452 552C452.78 552.241 453.56 552.482 454.363 552.73C459.074 554.375 463.619 556.311 468.188 558.313C469.54 558.88 469.54 558.88 470.92 559.459C471.786 559.84 472.651 560.221 473.543 560.613C474.327 560.951 475.111 561.29 475.919 561.638C478.692 563.453 479.664 564.962 481 568C481.287 570.666 481.421 573.089 481.398 575.75C481.401 576.486 481.404 577.221 481.407 577.979C481.409 579.529 481.404 581.079 481.391 582.629C481.375 584.993 481.391 587.355 481.41 589.719C481.408 591.229 481.404 592.74 481.398 594.25C481.405 594.952 481.411 595.654 481.417 596.378C481.355 600.753 480.707 603.537 478 607C471.108 611.297 463.123 613.471 455.444 615.989C453.191 616.728 450.941 617.477 448.691 618.227C435.185 622.694 421.605 626.814 408 631C408 585.46 408 539.92 408 493C413.28 491.02 418.56 489.04 424 487C425.65 486.374 427.3 485.747 429 485.102C430.333 484.608 431.666 484.116 433 483.625C434.007 483.236 434.007 483.236 435.035 482.84C445.479 479.037 452.353 481.944 462.188 486.313Z" fill="#FBC33E"/>
<path d="M368 61C367.01 61.33 366.02 61.66 365 62C368.057 63.2123 368.057 63.2123 371.688 62.875C375.603 62.8176 378.485 63.7224 382.074 65.207C386.619 67.0782 391.31 68.0686 396.125 68.9375C399.995 69.6716 402.697 70.7981 406 73C406.99 73 407.98 73 409 73C409.99 73.66 410.98 74.32 412 75C413.663 76.0057 415.329 77.0067 417 78C416.67 78.99 416.34 79.98 416 81C414.35 81 412.7 81 411 81C411 80.34 411 79.68 411 79C409.824 79.33 408.649 79.66 407.438 80C403.549 80.9823 400.017 81.0758 396 81C393.363 81.4103 391.38 81.8101 389 83C386.875 82.5625 386.875 82.5625 385 82C384.67 82.66 384.34 83.32 384 84C382.029 84.8345 382.029 84.8345 379.434 85.6641C378.481 85.9772 377.528 86.2904 376.547 86.613C375.521 86.947 374.495 87.2809 373.438 87.625C323.414 104.51 284.185 145.307 261.007 191.944C247.031 220.479 239.144 251.167 240 283C240.99 280.03 240.99 280.03 242 277C242.66 277 243.32 277 244 277C244.33 276.34 244.66 275.68 245 275C245.014 276.298 245.028 277.596 245.043 278.934C245.992 322.409 263.16 356.82 290 390C290.519 390.645 291.037 391.289 291.571 391.954C297.66 399.523 303.821 407.025 310.119 414.42C312.934 417.727 315.701 421.067 318.438 424.438C323.835 431.064 329.42 437.527 335 444C341.4 451.425 347.743 458.876 353.922 466.488C356.523 469.633 359.243 472.659 361.973 475.691C364.195 478.222 366.319 480.819 368.438 483.438C372.165 488.037 376.049 492.451 380.055 496.809C385 502.38 385 502.38 385 505C389.476 500.994 392.078 496.718 394.875 491.438C395.745 489.834 396.616 488.231 397.488 486.629C397.912 485.845 398.336 485.062 398.772 484.254C400.49 481.1 402.265 477.985 404.062 474.875C404.61 473.924 405.158 472.972 405.723 471.992C406.144 471.335 406.566 470.677 407 470C407.33 470 407.66 470 408 470C408.094 494.366 408.164 518.732 408.207 543.099C408.228 554.414 408.256 565.729 408.302 577.043C408.342 586.911 408.367 596.779 408.376 606.647C408.382 611.867 408.394 617.087 408.423 622.306C408.45 627.231 408.458 632.156 408.452 637.08C408.454 638.877 408.461 640.673 408.477 642.469C408.632 661.372 405.469 680.344 392 694.688C385.524 700.448 379.888 702.863 371.102 702.492C366.14 701.705 362.28 699.618 357.965 697.118C355.615 695.781 353.232 694.514 350.844 693.246C315.165 674.234 315.165 674.234 310 658C306.9 646.971 306.626 636.657 306.774 625.299C306.786 623.459 306.797 621.62 306.806 619.78C306.828 615.845 306.859 611.911 306.895 607.976C306.95 601.742 306.971 595.507 306.984 589.272C306.989 587.129 306.995 584.986 307 582.842C307.002 581.77 307.005 580.697 307.007 579.592C307.044 565.098 307.109 550.605 307.243 536.112C307.334 526.304 307.378 516.497 307.37 506.689C307.368 501.512 307.389 496.337 307.468 491.16C307.542 486.289 307.555 481.422 307.522 476.55C307.521 474.775 307.541 472.999 307.587 471.224C307.836 460.923 306.7 454.416 299.647 446.589C297.969 444.833 296.263 443.125 294.507 441.447C292.619 439.634 290.873 437.709 289.133 435.754C288.133 434.688 287.13 433.624 286.125 432.562C282.232 428.41 278.392 424.231 274.672 419.922C272.642 417.589 270.572 415.295 268.5 413C265.233 409.38 262.005 405.73 258.805 402.051C256.77 399.739 254.698 397.465 252.625 395.188C248.691 390.834 244.989 386.33 241.305 381.766C239.018 379.021 236.63 376.419 234.188 373.812C224.465 363.213 216.148 351.468 209 339C208.334 337.866 207.667 336.731 206.98 335.562C201.247 325.539 197.261 315.061 194 304C193.773 303.247 193.545 302.494 193.311 301.718C181.47 260.296 191.288 211.052 209 173C209.343 172.258 209.686 171.517 210.04 170.753C219.631 150.249 232.812 131.733 248.556 115.491C249.951 114.05 251.329 112.594 252.707 111.137C275.42 87.6259 305.209 70.455 337 63C337.886 62.7731 338.771 62.5463 339.684 62.3125C348.953 60.2302 358.559 60.8336 368 61Z" fill="#BA251C"/>
<path d="M307 457C310.891 457.702 313.604 458.72 317 460.773C317.96 461.346 318.92 461.919 319.909 462.509C320.929 463.124 321.949 463.74 323 464.375C332.764 470.181 342.657 475.606 352.762 480.793C358.244 483.637 362.413 486.14 366.5 490.875C367.28 491.761 368.06 492.646 368.863 493.559C369.568 494.364 370.274 495.17 371 496C375.07 500.448 378.687 503.111 384.562 504.688C387.536 503.849 387.702 503.244 389.234 500.66C389.67 499.935 390.105 499.209 390.553 498.462C391.03 497.65 391.508 496.837 392 496C392.525 495.124 393.049 494.247 393.59 493.344C395.299 490.485 396.994 487.619 398.687 484.75C399.559 483.28 399.559 483.28 400.447 481.781C401.005 480.838 401.562 479.894 402.137 478.922C402.639 478.072 403.141 477.222 403.659 476.347C404.851 474.261 405.952 472.16 407 470C407.33 470 407.66 470 408 470C408.094 494.366 408.164 518.732 408.207 543.099C408.228 554.414 408.256 565.729 408.302 577.043C408.342 586.911 408.367 596.779 408.376 606.647C408.382 611.867 408.394 617.087 408.423 622.306C408.45 627.231 408.458 632.156 408.452 637.08C408.454 638.877 408.461 640.673 408.477 642.469C408.632 661.372 405.469 680.344 392 694.688C385.524 700.448 379.888 702.863 371.102 702.492C366.14 701.705 362.28 699.618 357.965 697.118C355.615 695.781 353.232 694.514 350.844 693.246C315.163 674.233 315.163 674.233 310 658C306.914 646.976 306.585 636.6 306.659 625.245C306.66 623.4 306.66 621.556 306.658 619.711C306.657 614.747 306.675 609.784 306.696 604.82C306.715 599.616 306.716 594.412 306.72 589.209C306.729 579.374 306.754 569.54 306.784 559.705C306.818 548.501 306.834 537.296 306.849 526.092C306.88 503.061 306.933 480.031 307 457Z" fill="#2E2E2E"/>
<path d="M392.852 160.273C403.194 168.459 408.288 180.962 410.461 193.703C410.768 196.477 410.913 199.211 411 202C411.052 203.203 411.103 204.405 411.156 205.645C411.84 234.672 400.905 261.043 381.715 282.562C370.602 294.166 354.822 304.607 338.344 305.301C336.729 305.315 335.115 305.319 333.5 305.312C332.295 305.337 332.295 305.337 331.066 305.361C325.676 305.366 320.686 304.866 316 302C314.195 299.469 314.195 299.469 313.125 296.5C312.756 295.541 312.388 294.582 312.008 293.594C309.277 283.855 308.612 274.47 308.625 264.375C308.625 263.715 308.625 263.055 308.626 262.376C308.66 251.682 309.582 242.12 313 232C313.374 230.873 313.748 229.747 314.133 228.586C320.525 210.848 330.153 196.66 343 183C343.599 182.325 344.199 181.649 344.816 180.953C354.089 170.939 379.441 151.05 392.852 160.273Z" fill="#F4F0EC"/>
<path d="M442.148 166.398C456.088 179.116 465.148 197.339 466.175 216.215C466.744 236.264 466.744 236.264 465 244C464.67 244 464.34 244 464 244C463.805 242.047 463.609 240.094 463.414 238.141C462.965 235.817 462.142 234.062 461 232C460.853 233.163 460.706 234.325 460.555 235.523C457.311 259.4 448.72 281.468 433 300C432.549 300.533 432.098 301.066 431.633 301.616C424.817 309.582 417.718 316.113 409 322C408.203 322.563 407.407 323.127 406.586 323.707C393.419 332.405 375.354 336.366 359.879 333.246C343.708 329.584 331.816 321.717 321 309C320.301 307.347 319.626 305.682 319 304C318.34 303.67 317.68 303.34 317 303C317.967 303.159 318.934 303.317 319.93 303.48C339.109 306.192 354.965 302.487 370.727 291.016C373.216 289.075 375.621 287.074 378 285C378.602 284.482 379.204 283.964 379.824 283.43C398.304 266.286 409.022 238.802 410.184 214.094C410.65 194.909 407.726 176.397 394.09 161.98C391.564 159.756 389.463 158.147 386.055 157.805C366.981 160.778 349.646 176.609 337 190C337 184.894 341.037 181.912 344.506 178.423C371.83 152.386 410.441 141.384 442.148 166.398Z" fill="#A91912"/>
<path d="M307 457C310.918 457.706 313.648 458.745 317.07 460.809C318.051 461.392 319.032 461.975 320.043 462.576C321.06 463.19 322.077 463.805 323.125 464.438C330.618 468.947 338.184 473.199 345.933 477.25C346.808 477.709 347.683 478.168 348.584 478.641C350.722 479.762 352.861 480.882 355 482C355.003 482.916 355.007 483.832 355.01 484.776C355.091 507.14 355.184 529.503 355.288 551.866C355.338 562.681 355.384 573.496 355.422 584.311C355.455 593.744 355.495 603.178 355.543 612.611C355.568 617.6 355.59 622.588 355.603 627.576C355.616 632.286 355.639 636.996 355.667 641.705C355.676 643.42 355.682 645.135 355.684 646.849C355.103 673.866 355.103 673.866 365 698C359.858 697.492 356.122 696.341 351.578 693.902C350.993 693.59 350.407 693.277 349.804 692.955C348.571 692.294 347.341 691.627 346.113 690.955C344.276 689.951 342.428 688.968 340.578 687.986C326.716 680.547 315.324 673.467 309.859 658.199C306.936 647.317 306.725 636.771 306.773 625.585C306.774 623.741 306.773 621.897 306.772 620.053C306.772 615.077 306.783 610.1 306.797 605.124C306.81 599.912 306.811 594.701 306.813 589.489C306.819 579.633 306.836 569.777 306.856 559.921C306.878 548.695 306.889 537.469 306.899 526.243C306.92 503.162 306.955 480.081 307 457Z" fill="#171717"/>
<path d="M457 484C458.019 484.429 458.019 484.429 459.059 484.867C460.711 485.565 462.356 486.281 464 487C464 487.99 464 488.98 464 490C465.114 490.155 465.114 490.155 466.25 490.312C469.17 491.043 470.732 492.068 473 494C472.34 494 471.68 494 471 494C471 494.99 471 495.98 471 497C472.134 496.814 473.269 496.629 474.438 496.437C476.201 496.221 476.201 496.221 478 496C479 497 479 497 479.438 499.812C479 503 479 503 476.48 505.012C472.831 507.259 468.926 508.654 464.875 510C464.049 510.282 463.223 510.564 462.372 510.854C459.252 511.914 456.126 512.958 453 514C451.564 514.481 450.127 514.962 448.691 515.443C439.468 518.533 430.241 521.607 421.009 524.669C416.672 526.109 412.336 527.555 408 529C408 517.12 408 505.24 408 493C413.28 491.02 418.56 489.04 424 487C425.65 486.374 427.3 485.747 429 485.102C430.333 484.608 431.666 484.116 433 483.625C434.007 483.236 434.007 483.236 435.035 482.84C443.129 479.892 449.2 480.558 457 484Z" fill="#FBC240"/>
<path d="M414 82C414 82.66 414 83.32 414 84C414.99 84.495 414.99 84.495 416 85C415.67 85.66 415.34 86.32 415 87C412.547 87.3878 410.158 87.6582 407.688 87.875C378.537 90.9716 352.167 100.693 329 119C328.183 119.615 327.365 120.23 326.523 120.863C312.855 131.496 300.505 144.305 290.28 158.267C288.925 160.102 287.534 161.905 286.137 163.707C279.966 171.756 275.223 179.747 271 189C270.342 190.404 269.681 191.808 269.02 193.211C267.33 196.8 265.66 200.397 264 204C262.931 200.728 262.903 200.21 264.438 196.875C264.953 195.926 265.469 194.977 266 194C266 193.34 266 192.68 266 192C265.01 192 264.02 192 263 192C261.68 194.31 260.36 196.62 259 199C258.67 198.34 258.34 197.68 258 197C259.038 194.34 260.141 191.818 261.375 189.25C261.739 188.486 262.104 187.723 262.479 186.936C266.086 179.55 270.332 172.752 275 166C275.405 165.406 275.81 164.811 276.228 164.199C281.648 156.268 287.436 149.033 294 142C295.151 140.671 296.297 139.338 297.438 138C304.912 129.46 313.091 122.01 322 115C323.479 113.795 323.479 113.795 324.988 112.566C343.322 97.8008 365.797 86.5422 389 82C390.114 81.6494 391.227 81.2987 392.375 80.9375C399.831 79.0092 406.6 80.5013 414 82Z" fill="#FD8174"/>
<path d="M442.148 166.398C456.088 179.116 465.148 197.339 466.175 216.215C466.744 236.264 466.744 236.264 465 244C464.67 244 464.34 244 464 244C463.837 242.047 463.674 240.094 463.512 238.141C463.154 235.904 463.154 235.904 461.484 234.285C459.2 230.769 459.601 227.294 459.562 223.188C458.946 205.123 453.173 187.21 440.266 174.105C439.518 173.411 438.77 172.716 438 172C437.314 171.357 436.628 170.714 435.922 170.051C421.494 157.734 404.129 156.633 386 158C380.978 158.847 376.534 160.709 372 163C370.585 163.669 370.585 163.669 369.141 164.352C356.541 170.723 346.641 179.898 337 190C337 184.894 341.037 181.912 344.506 178.423C371.83 152.386 410.441 141.384 442.148 166.398Z" fill="#BC1C14"/>
<path d="M456 272C456.784 274.272 457.171 275.527 456.338 277.824C455.788 278.747 455.788 278.747 455.227 279.688C454.819 280.38 454.412 281.072 453.992 281.785C453.541 282.516 453.09 283.247 452.625 284C452.162 284.762 451.698 285.524 451.221 286.309C436.226 310.633 415.906 330.54 388.207 339.184C383.17 340.364 378.145 340.217 373 340.125C372.034 340.116 371.069 340.107 370.074 340.098C367.716 340.074 365.358 340.042 363 340C363 339.67 363 339.34 363 339C363.699 338.951 364.397 338.902 365.117 338.852C366.482 338.739 366.482 338.739 367.875 338.625C368.78 338.555 369.685 338.486 370.617 338.414C373.179 338.204 373.179 338.204 375 336C368.07 335.505 368.07 335.505 361 335C361 334.67 361 334.34 361 334C361.969 333.974 362.939 333.948 363.938 333.922C377.133 333.422 390.228 331.334 402 325C402.761 324.604 403.521 324.209 404.305 323.801C423.885 312.885 437.227 295.205 448 276C448.495 276.99 448.495 276.99 449 278C449.99 277.67 450.98 277.34 452 277C452.495 277.495 452.495 277.495 453 278C453.99 276.02 454.98 274.04 456 272Z" fill="#FD7E71"/>
<path d="M475 496C477.062 496.438 477.062 496.438 479 497C479.375 499.75 479.375 499.75 479 503C474.686 506.457 470.1 508.264 464.875 510C464.049 510.282 463.223 510.564 462.372 510.854C459.252 511.914 456.126 512.958 453 514C451.564 514.481 450.127 514.962 448.691 515.443C439.397 518.557 430.098 521.653 420.795 524.74C416.529 526.156 412.264 527.577 408 529C408 525.7 408 522.4 408 519C408.933 518.689 409.867 518.378 410.829 518.057C411.454 517.849 412.079 517.64 412.722 517.426C414.148 516.951 415.573 516.476 416.998 516.001C421.004 514.665 425.011 513.33 429.017 511.993C436.296 509.565 443.576 507.137 450.863 504.73C453.648 503.809 456.433 502.886 459.218 501.964C460.53 501.53 461.843 501.097 463.156 500.665C464.973 500.067 466.789 499.465 468.605 498.863C469.628 498.526 470.65 498.189 471.704 497.841C473.933 497.207 473.933 497.207 475 496Z" fill="#FDCF64"/>
<path d="M313.805 123.719C314.529 123.812 315.254 123.904 316 124C315.893 128.668 315.313 131.101 312.008 134.473C310.725 135.682 309.43 136.878 308.125 138.062C301.511 144.366 295.763 150.885 290.328 158.219C288.948 160.069 287.539 161.894 286.125 163.719C279.961 171.765 275.221 179.753 271 189C270.342 190.404 269.681 191.808 269.02 193.211C267.33 196.8 265.66 200.397 264 204C262.931 200.728 262.903 200.21 264.438 196.875C264.953 195.926 265.469 194.978 266 194C266 193.34 266 192.68 266 192C265.01 192 264.02 192 263 192C261.68 194.31 260.36 196.62 259 199C258.67 198.34 258.34 197.68 258 197C259.038 194.34 260.141 191.818 261.375 189.25C261.739 188.486 262.104 187.723 262.479 186.936C266.086 179.55 270.332 172.752 275 166C275.405 165.406 275.81 164.811 276.228 164.199C281.648 156.268 287.436 149.033 294 142C295.151 140.671 296.297 139.338 297.438 138C300.273 134.775 303.166 131.612 306.125 128.5C306.932 127.644 307.739 126.788 308.57 125.906C311 124 311 124 313.805 123.719Z" fill="#F85446"/>
<path d="M191 280C192.892 282.386 194.024 284.072 195 287C194.67 287.99 194.34 288.98 194 290C194.66 290 195.32 290 196 290C195.67 291.65 195.34 293.3 195 295C195.99 295.33 196.98 295.66 198 296C197.67 296.99 197.34 297.98 197 299C197.239 301.611 197.239 301.611 198 304C198.66 304.33 199.32 304.66 200 305C200.379 307.145 200.379 307.145 200.563 309.812C200.708 315.606 200.708 315.606 203.438 320.375C205.597 322.621 206.104 325.056 207 328C207.495 328.495 207.495 328.495 208 329C208.041 330.666 208.043 332.334 208 334C209.485 334.495 209.485 334.495 211 335C212.57 336.961 212.57 336.961 214.125 339.375C214.643 340.166 215.161 340.958 215.695 341.773C217 344 217 344 218 347C217.67 347.66 217.34 348.32 217 349C217.66 349 218.32 349 219 349C219 349.99 219 350.98 219 352C220.485 352.495 220.485 352.495 222 353C224 356 224 356 224 359C225.32 359.66 226.64 360.32 228 361C227.67 361.66 227.34 362.32 227 363C228.98 363 230.96 363 233 363C233 364.32 233 365.64 233 367C233.99 367.495 233.99 367.495 235 368C236.041 369.99 236.914 372.028 237.805 374.09C239.248 376.396 240.581 376.866 243 378C243.688 379.658 244.356 381.325 245 383C245.99 383.33 246.98 383.66 248 384C248 384.99 248 385.98 248 387C248.66 387 249.32 387 250 387C251.625 388.312 251.625 388.312 253 390C253 390.99 253 391.98 253 393C253.99 392.67 254.98 392.34 256 392C256 393.32 256 394.64 256 396C256.619 396.309 257.238 396.619 257.875 396.938C259.25 397.625 260.625 398.312 262 399C262.103 399.598 262.206 400.196 262.313 400.812C263.293 403.934 265.488 405.003 268 407C268 407.99 268 408.98 268 410C268.619 410.083 269.238 410.165 269.875 410.25C272.675 411.238 272.741 412.404 274 415C274.639 415.289 275.279 415.577 275.938 415.875C278.929 417.507 279.533 420.003 281 423C281.99 423.33 282.98 423.66 284 424C284.557 425.299 284.557 425.299 285.125 426.625C287.761 431.369 291.628 433.902 296 437C295.67 437.99 295.34 438.98 295 440C295.66 440 296.32 440 297 440C297 440.66 297 441.32 297 442C298.32 442.33 299.64 442.66 301 443C301.062 443.598 301.124 444.196 301.188 444.812C302.336 447.905 304.142 448.471 307 450C310.068 452.016 311.59 453.593 313 457C311 458 311 458 309.066 457.801C306.393 456.765 305.583 455.523 303.938 453.188C301.036 449.273 297.938 445.63 294.625 442.062C294.154 441.555 293.683 441.047 293.198 440.523C292.253 439.505 291.308 438.488 290.362 437.471C285.075 431.762 279.923 425.93 274.813 420.062C272.728 417.69 270.616 415.344 268.5 413C265.233 409.38 262.005 405.73 258.805 402.051C256.77 399.739 254.698 397.465 252.625 395.188C248.691 390.834 244.989 386.33 241.305 381.766C239.018 379.021 236.63 376.419 234.188 373.812C224.465 363.213 216.148 351.468 209 339C208 337.298 208 337.298 206.98 335.562C197.61 319.17 189.995 299.1 191 280Z" fill="#74120E"/>
<path d="M417.5 74.3125C419.119 74.9816 420.738 75.6496 422.358 76.3167C426.228 77.9139 430.093 79.5246 433.955 81.1429C436.839 82.3516 439.727 83.554 442.613 84.7578C446.75 86.4883 450.878 88.2352 455 90C455 90.99 455 91.98 455 93C454.67 93.33 454.34 93.66 454 94C455.485 94.495 455.485 94.495 457 95C456.67 95.33 456.34 95.66 456 96C451.667 95.7234 448.295 94.7839 444.312 93.0625C437.778 90.3192 430.92 88.9807 423.828 89.0156C421 89 421 89 418 88C415.427 87.9297 412.884 87.9063 410.312 87.9375C409.611 87.942 408.909 87.9465 408.186 87.9512C406.457 87.9629 404.728 87.9809 403 88C403 87.67 403 87.34 403 87C406.96 87 410.92 87 415 87C413.528 82.9768 413.528 82.9768 411.055 82.1719C410.335 82.0327 409.616 81.8934 408.875 81.75C407.596 81.5025 406.317 81.255 405 81C407.917 79.0164 409.124 79.0124 412.75 79.375C413.822 79.5813 414.895 79.7875 416 80C415.505 78.515 415.505 78.515 415 77C414.196 76.8763 413.391 76.7525 412.562 76.625C411.717 76.4188 410.871 76.2125 410 76C409.505 75.01 409.505 75.01 409 74C408.01 74 407.02 74 406 74C405.237 73.5398 404.474 73.0796 403.688 72.6055C400.789 70.8738 398.274 70.1018 395 69.3125C393.989 69.0611 392.979 68.8098 391.938 68.5508C389.205 68.0385 386.77 67.8931 384 68C383.67 67.34 383.34 66.68 383 66C376.913 64.0078 371.37 63.765 365 64C365 63.34 365 62.68 365 62C380.545 56.8182 403.303 68.3539 417.5 74.3125Z" fill="#F55144"/>
<path d="M364 62C364 62.33 364 62.66 364 63C362.422 63.2166 362.422 63.2166 360.812 63.4375C358.698 63.7495 356.585 64.0933 354.5 64.5625C352 65 352 65 348.5 64.9375C345.125 64.7882 345.125 64.7882 342.688 65.9375C339.978 67.0088 338.07 67.1948 335.188 67.375C330.711 67.7347 327.628 68.9152 323.738 71.0899C321.551 72.2351 319.417 72.5548 317 73C314.973 73.943 312.977 74.9555 311 76C309.357 76.8381 307.711 77.671 306.062 78.5C305.204 78.9331 304.345 79.3663 303.461 79.8125C301.39 80.8119 299.331 81.6761 297.188 82.5C293.845 83.8386 293.845 83.8386 291.438 86.6875C289 89 289 89 285.688 89.3125C284.801 89.2094 283.914 89.1063 283 89C282.722 89.8663 282.722 89.8663 282.438 90.75C280.887 93.1774 279.912 93.7764 277.438 95.125C273.965 96.5948 273.965 96.5948 273 99C272.257 99.4125 271.515 99.825 270.75 100.25C268.002 101.999 266.441 103.839 264.465 106.391C262.738 108.288 260.858 109.605 258.75 111.063C255.564 113.308 255.564 113.308 254 116.875C254 117.576 254 118.278 254 119C253.216 119.083 252.433 119.165 251.625 119.25C248.853 119.728 248.853 119.728 247.688 122.063C247.461 122.702 247.234 123.341 247 124C246.34 124 245.68 124 245 124C244.67 125.32 244.34 126.64 244 128C241.844 128 240.076 127.553 238 127C265.561 96.7453 296.399 72.5237 337 63C338.398 62.6423 338.398 62.6423 339.824 62.2774C347.928 60.4483 355.807 61.2393 364 62Z" fill="#E9271D"/>
<path d="M313 300C313.99 300 314.98 300 316 300C316 300.66 316 301.32 316 302C316.66 302.33 317.32 302.66 318 303C319.054 304.308 320.069 305.647 321.062 307C332.723 322.224 345.117 329.419 364 333C364 333.33 364 333.66 364 334C370.93 334.495 370.93 334.495 378 335C371.417 340.267 365.811 340.517 357.539 339.781C347.174 337.835 338.288 332.261 330 326C329.051 325.299 328.103 324.598 327.125 323.875C324.74 321.771 322.842 319.592 321 317C321 316.34 321 315.68 321 315C320.402 314.794 319.804 314.588 319.188 314.375C316.127 312.451 315.325 310.312 314 307C314 305.68 314 304.36 314 303C313.34 302.67 312.68 302.34 312 302C312.33 301.34 312.66 300.68 313 300Z" fill="#F65244"/>
<path d="M244 275C244.33 275 244.66 275 245 275C245.014 276.298 245.028 277.596 245.043 278.934C245.463 298.124 248.174 316.992 255.863 334.695C257.484 339.406 257.574 343.278 256 348C255.34 348 254.68 348 254 348C253.505 345.525 253.505 345.525 253 343C252.34 343 251.68 343 251 343C250.78 342.23 250.78 342.23 250.555 341.445C249.333 337.275 248.07 333.145 246.57 329.066C243.57 320.784 241.361 312.737 240.125 304C240.005 303.153 239.885 302.305 239.762 301.432C238.656 292.716 237.85 284.955 242 277C242.66 277 243.32 277 244 277C244 276.34 244 275.68 244 275Z" fill="#D0281D"/>
<path d="M431 165C435 165 435 165 436.816 166.645C437.393 167.36 437.969 168.075 438.562 168.812C441.544 172.64 441.544 172.64 445 176C446.32 176 447.64 176 449 176C459.502 184.91 464.508 199.661 466 213C467.185 234.311 467.185 234.311 465 244C464.67 244 464.34 244 464 244C463.837 242.047 463.674 240.094 463.512 238.141C463.154 235.904 463.154 235.904 461.484 234.285C459.2 230.769 459.601 227.294 459.562 223.188C458.901 203.818 452.313 185.47 438 172C435.705 169.946 433.371 167.967 431 166C431 165.67 431 165.34 431 165Z" fill="#C42118"/>
<path d="M327 463C328.812 463.188 328.812 463.188 331 464C331.454 464.784 331.907 465.567 332.375 466.375C334.431 469.696 336.398 470.62 340 472C340.66 471.67 341.32 471.34 342 471C342.248 471.639 342.495 472.279 342.75 472.938C343.816 475.187 343.816 475.187 346.125 475.75C346.744 475.833 347.363 475.915 348 476C348 476.66 348 477.32 348 478C349.32 478.33 350.64 478.66 352 479C351.415 475.339 349.917 473.455 347.438 470.75C346.797 470.044 346.156 469.337 345.496 468.609C345.002 468.078 344.509 467.547 344 467C344.33 466.34 344.66 465.68 345 465C346.65 466.98 348.3 468.96 350 471C351.32 469.68 352.64 468.36 354 467C359.811 473.272 365.392 479.631 370.762 486.289C373.745 489.902 376.884 493.36 380.055 496.809C385 502.38 385 502.38 385 505C378.965 504.698 375.285 501.995 371 498C369.106 495.78 367.35 493.513 365.641 491.148C361.873 486.215 358.017 483.841 352.375 481.375C342.945 477.111 333.983 472.127 325 467C325.66 466.67 326.32 466.34 327 466C327 465.01 327 464.02 327 463Z" fill="#AF1D15"/>
<path d="M451 546C451.33 546 451.66 546 452 546C452 547.98 452 549.96 452 552C452.777 552.24 453.555 552.48 454.355 552.727C459.112 554.389 463.7 556.352 468.313 558.375C469.231 558.762 470.149 559.148 471.096 559.547C471.968 559.931 472.84 560.315 473.738 560.711C474.533 561.054 475.327 561.398 476.146 561.751C478 563 478 563 478.766 565.143C478.882 566.062 478.882 566.062 479 567C478.67 566.34 478.34 565.68 478 565C476.989 565.557 475.979 566.114 474.938 566.688C468.594 569.882 461.748 571.847 455 574C451.882 574.646 451.882 574.646 451 577C449.143 575.143 449.87 572.075 449.867 569.594C449.866 568.293 449.865 566.992 449.863 565.652C449.865 564.972 449.867 564.291 449.87 563.589C449.875 561.509 449.87 559.428 449.863 557.348C449.865 556.047 449.866 554.746 449.867 553.406C449.868 552.203 449.869 551 449.871 549.76C450 547 450 547 451 546Z" fill="#F7B535"/>
<path d="M389 157C406.334 156.235 420.549 157.218 435 168C437.625 170.875 437.625 170.875 439 173C436.333 171.667 433.667 170.333 431 169C431 168.34 431 167.68 431 167C429.68 167 428.36 167 427 167C425.375 165.5 425.375 165.5 424 164C423.34 164 422.68 164 422 164C422 163.34 422 162.68 422 162C421.112 161.909 421.112 161.909 420.207 161.816C416.09 161.38 412.045 160.913 408 160C408 159.34 408 158.68 408 158C403.513 158.339 403.513 158.339 400.125 161.062C399.754 161.702 399.382 162.341 399 163C399.803 163.803 400.646 164.565 401.5 165.312C403.196 167.22 403.431 168.56 404 171C404.66 171.33 405.32 171.66 406 172C406 172.66 406 173.32 406 174C406.66 174 407.32 174 408 174C408.456 175.986 408.911 177.971 409.367 179.957C409.98 182.277 409.98 182.277 412 185C412 185.99 412 186.98 412 188C412.351 188.866 412.701 189.732 413.062 190.625C414.133 194.478 413.79 197.072 413.094 200.949C412.783 203.316 412.783 203.316 415 206C414.73 208.341 414.387 210.675 414 213C414 214.155 414 215.31 414 216.5C414 223.118 412.69 229.617 411 236C410.732 237.176 410.464 238.351 410.188 239.562C408.955 243.13 408.21 244.181 405 246C405.424 242.537 405.915 239.279 406.938 235.937C412.667 216.553 411.951 192.185 403 174C399.208 167.465 394.887 162.685 389 158C389 157.67 389 157.34 389 157Z" fill="#660A07"/>
<path d="M414 82C414 82.66 414 83.32 414 84C414.66 84.33 415.32 84.66 416 85C415.67 85.66 415.34 86.32 415 87C412.547 87.3879 410.158 87.6596 407.688 87.875C400.835 88.5722 394.126 89.6326 387.375 91C386.133 91.2492 386.133 91.2492 384.866 91.5034C380.174 92.4722 375.605 93.6681 371 95C368.672 95.3695 366.34 95.7135 364 96C364 95.34 364 94.68 364 94C363.01 94.33 362.02 94.66 361 95C361 94.34 361 93.68 361 93C361.814 92.6017 361.814 92.6017 362.645 92.1953C363.36 91.8421 364.075 91.4889 364.812 91.125C365.52 90.7769 366.228 90.4289 366.957 90.0703C369.212 88.9343 369.212 88.9343 372 87C373.942 86.267 375.903 85.5842 377.875 84.9375C378.904 84.5959 379.932 84.2543 380.992 83.9023C383.659 83.1023 386.269 82.5223 389 82C390.114 81.6494 391.227 81.2987 392.375 80.9375C399.831 79.0092 406.6 80.5013 414 82Z" fill="#FB6E61"/>
<path d="M250 224C250.33 224.66 250.66 225.32 251 226C250.67 226.66 250.34 227.32 250 228C250.66 228 251.32 228 252 228C251.398 235.166 250.352 242.178 249.063 249.25C247.671 256.972 246.437 264.651 245.59 272.453C244.929 275.308 244.144 276.105 242 278C240.8 281.1 240.8 281.1 240 284C239.67 284 239.34 284 239 284C238.627 268.985 239.577 254.295 242.938 239.625C243.095 238.93 243.253 238.234 243.415 237.518C244.394 233.544 245.71 230.384 248 227C248.66 226.01 249.32 225.02 250 224Z" fill="#E7372B"/>
<path d="M313.805 123.719C314.529 123.812 315.254 123.904 316 124C315.893 128.668 315.313 131.101 312.008 134.473C310.726 135.682 309.431 136.878 308.125 138.062C302.404 143.489 297.31 149.028 292.59 155.344C289.942 158.879 287.181 161.955 284 165C285.125 162.028 286.223 159.666 288 157C287.01 156.67 286.02 156.34 285 156C284.01 156.495 284.01 156.495 283 157C284.377 152.897 286.236 150.332 289.188 147.188C289.997 146.315 290.807 145.442 291.641 144.543C292.809 143.284 292.809 143.284 294 142C295.151 140.671 296.297 139.338 297.438 138C300.273 134.775 303.166 131.612 306.125 128.5C306.932 127.644 307.739 126.788 308.57 125.906C311 124 311 124 313.805 123.719Z" fill="#FA6254"/>
<path d="M274 371C277.676 374.538 280.895 378.261 284 382.312C287.144 386.381 290.32 390.411 293.605 394.367C294.202 395.087 294.798 395.808 295.412 396.55C296.581 397.957 297.755 399.36 298.936 400.757C299.466 401.398 299.996 402.039 300.543 402.699C301.018 403.265 301.492 403.83 301.981 404.413C303 406 303 406 303 409C301.68 408.34 300.36 407.68 299 407C299.33 408.98 299.66 410.96 300 413C300.66 413 301.32 413 302 413C301.67 414.32 301.34 415.64 301 417C301 416.01 301 415.02 301 414C300.402 413.752 299.804 413.505 299.188 413.25C296.664 411.808 295.5 410.475 294 408C294 407.01 294 406.02 294 405C292.68 404.34 291.36 403.68 290 403C290 402.34 290 401.68 290 401C289.01 400.67 288.02 400.34 287 400C287 399.34 287 398.68 287 398C286.34 398 285.68 398 285 398C284.598 396.546 284.598 396.546 284.188 395.062C283.796 394.052 283.404 393.041 283 392C282.01 391.67 281.02 391.34 280 391C278.625 388.688 278.625 388.688 278 386C279.375 383.688 279.375 383.688 281 382C279.68 381.67 278.36 381.34 277 381C277 381.99 277 382.98 277 384C276.34 384 275.68 384 275 384C274.629 383.103 274.629 383.103 274.25 382.188C272.836 379.714 271.349 378.566 269 377C270.98 376.34 272.96 375.68 275 375C274.67 373.68 274.34 372.36 274 371Z" fill="#B71F16"/>
<path d="M456 272C456.784 274.272 457.171 275.527 456.338 277.824C455.971 278.439 455.605 279.054 455.227 279.688C454.818 280.381 454.41 281.074 453.989 281.789C453.539 282.519 453.089 283.248 452.625 284C451.944 285.126 451.944 285.126 451.25 286.276C439.697 305.101 439.697 305.101 431 308C430.67 308.66 430.34 309.32 430 310C429.34 309.67 428.68 309.34 428 309C428.33 309.99 428.66 310.98 429 312C426.525 312.495 426.525 312.495 424 313C425.152 310.532 426.048 308.952 428 307C428.371 305.917 428.371 305.917 428.75 304.812C430.103 301.768 431.942 299.755 434.148 297.293C439.44 290.74 443.707 283.224 448 276C448.33 276.66 448.66 277.32 449 278C449.99 277.67 450.98 277.34 452 277C452.33 277.33 452.66 277.66 453 278C453.99 276.02 454.98 274.04 456 272Z" fill="#F96052"/>
<path d="M356 529C356.33 529 356.66 529 357 529C356.995 529.855 356.99 530.711 356.984 531.592C355.021 555.455 355.021 555.455 359 578C358.34 578 357.68 578 357 578C357.33 589.88 357.66 601.76 358 614C358.99 613.01 359.98 612.02 361 611C361.99 611.33 362.98 611.66 364 612C364 613.32 364 614.64 364 616C363.34 616 362.68 616 362 616C362 616.66 362 617.32 362 618C362.66 618.33 363.32 618.66 364 619C362.793 619.217 362.793 619.217 361.563 619.438C359.079 619.741 359.079 619.741 358 621C357.844 622.413 357.749 623.834 357.684 625.254C357.642 626.108 357.6 626.962 357.557 627.842C357.517 628.74 357.478 629.637 357.438 630.562C357.394 631.464 357.351 632.366 357.307 633.295C357.2 635.53 357.098 637.765 357 640C356.67 640 356.34 640 356 640C355.103 633.873 354.857 627.932 354.871 621.744C354.869 620.75 354.867 619.756 354.865 618.731C354.861 615.468 354.864 612.205 354.867 608.941C354.867 606.668 354.866 604.395 354.864 602.122C354.863 597.372 354.865 592.622 354.87 587.872C354.875 581.77 354.872 575.668 354.866 569.565C354.862 564.879 354.864 560.192 354.866 555.506C354.867 553.254 354.866 551.003 354.864 548.751C354.861 545.617 354.865 542.484 354.871 539.35C354.869 538.412 354.867 537.475 354.864 536.509C354.886 530.114 354.886 530.114 356 529Z" fill="#373737"/>
<path d="M480 565C481.211 568.632 481.124 571.951 481.098 575.73C481.096 576.481 481.095 577.231 481.093 578.004C481.088 580.399 481.075 582.793 481.062 585.188C481.057 586.812 481.053 588.436 481.049 590.061C481.038 594.04 481.021 598.02 481 602C480.67 602 480.34 602 480 602C479.67 592.1 479.34 582.2 479 572C474.71 573.65 470.42 575.3 466 577C456.453 580.58 456.453 580.58 452 579C452 577.68 452 576.36 452 575C455.719 572.083 460.104 570.827 464.562 569.438C469.499 567.923 469.499 567.923 474.215 565.848C476 565 476 565 480 565Z" fill="#FCD26E"/>
<path d="M376 287C376.99 287.33 377.98 287.66 379 288C378.381 288.227 377.762 288.454 377.125 288.688C374.773 289.849 374.773 289.849 374 292.5C373 295 373 295 371.125 296.188C370.424 296.456 369.723 296.724 369 297C366.479 298.186 364.996 299.004 363 301C362.01 301 361.02 301 360 301C359.67 301.66 359.34 302.32 359 303C357.375 303.508 355.746 304.003 354.098 304.43C351.837 305.044 349.649 305.792 347.438 306.562C340.878 308.753 334.866 309.137 328 309C328 312.204 328.743 314.094 330 317C325.89 313.64 322.054 310.397 319 306C319 305.34 319 304.68 319 304C318.34 303.67 317.68 303.34 317 303C318.45 303.238 318.45 303.238 319.93 303.48C338.789 306.147 355.011 302.763 370.422 291.18C371.758 290.131 373.08 289.064 374.379 287.969C374.914 287.649 375.449 287.329 376 287Z" fill="#D21D16"/>
<path d="M325 434C328.66 436.749 331.48 439.599 334.312 443.188C338.387 448.274 342.624 453.171 347 458C346.67 458.66 346.34 459.32 346 460C345.34 459.34 344.68 458.68 344 458C343.67 460.31 343.34 462.62 343 465C342.34 464.67 341.68 464.34 341 464C341 463.01 341 462.02 341 461C340.34 461 339.68 461 339 461C339 460.34 339 459.68 339 459C338.01 458.67 337.02 458.34 336 458C335.783 457.041 335.783 457.041 335.562 456.062C335.377 455.382 335.191 454.701 335 454C334.395 453.7 333.791 453.399 333.168 453.09C330.737 451.868 329.49 450.574 327.75 448.5C327.229 447.892 326.708 447.283 326.172 446.656C325 445 325 445 325 443C324.01 442.67 323.02 442.34 322 442C322 441.34 322 440.68 322 440C321.34 440 320.68 440 320 440C319.34 438.68 318.68 437.36 318 436C321.161 437.37 321.993 437.989 324 441C325.125 439.167 325.125 439.167 326 437C325.67 436.01 325.34 435.02 325 434Z" fill="#BA2016"/>
<path d="M191 280C192.892 282.386 194.024 284.072 195 287C194.67 287.99 194.34 288.98 194 290C194.66 290 195.32 290 196 290C195.67 291.65 195.34 293.3 195 295C195.99 295.33 196.98 295.66 198 296C197.67 296.99 197.34 297.98 197 299C197.239 301.611 197.239 301.611 198 304C198.66 304.33 199.32 304.66 200 305C200.379 307.145 200.379 307.145 200.563 309.812C200.708 315.606 200.708 315.606 203.438 320.375C205.597 322.621 206.104 325.056 207 328C207.495 328.495 207.495 328.495 208 329C208.041 330.666 208.043 332.334 208 334C209.485 334.495 209.485 334.495 211 335C212.57 336.961 212.57 336.961 214.125 339.375C214.643 340.166 215.161 340.958 215.695 341.773C217 344 217 344 218 347C217.01 347.495 217.01 347.495 216 348C201.186 329.61 189.735 304.043 191 280Z" fill="#82140F"/>
<path d="M436 304C436 307.545 435.561 307.83 433.176 310.258C432.565 310.88 431.955 311.501 431.325 312.142C430.661 312.796 429.997 313.451 429.312 314.125C428.639 314.794 427.965 315.464 427.27 316.153C420.621 322.61 412.754 329.607 404 333C403.01 332.67 402.02 332.34 401 332C407.75 328 407.75 328 410 328C410 327.01 410 326.02 410 325C408.35 325 406.7 325 405 325C407.566 322.348 410.171 320.02 413.125 317.812C418.34 313.821 423.171 309.446 428 305C428 308.517 427.176 309.371 425 312C425.99 311.67 426.98 311.34 428 311C428 310.34 428 309.68 428 309C428.763 308.732 429.526 308.464 430.312 308.188C432.874 307.056 434.197 306.088 436 304Z" fill="#FD8477"/>
<path d="M341 327C346.095 327.912 350.919 329.497 355.844 331.062C358.559 331.869 361.215 332.501 364 333C364 333.33 364 333.66 364 334C370.93 334.495 370.93 334.495 378 335C371.419 340.265 365.646 340.619 357.363 339.711C352.932 338.823 348.771 337.545 345 335C344.312 332.5 344.312 332.5 344 330C342.542 328.206 342.542 328.206 341 327Z" fill="#F85A4C"/>
<path d="M364 62C364 62.33 364 62.66 364 63C362.422 63.2166 362.422 63.2166 360.812 63.4375C358.698 63.7495 356.585 64.0933 354.5 64.5625C352 65 352 65 348.5 64.9375C345.125 64.7882 345.125 64.7882 342.688 65.9375C339.978 67.0088 338.07 67.1948 335.188 67.375C330.711 67.7347 327.628 68.9152 323.738 71.0899C321.551 72.2351 319.417 72.5548 317 73C314.973 73.943 312.977 74.9555 311 76C309.253 76.9018 307.503 77.7972 305.75 78.6875C304.474 79.343 304.474 79.343 303.172 80.0117C301 81 301 81 299 81C300 78 300 78 303 76.4375C303.99 75.9631 304.98 75.4888 306 75C306.33 74.34 306.66 73.68 307 73C309.199 71.9456 311.358 71.0112 313.625 70.125C314.294 69.8611 314.964 69.5971 315.653 69.3252C322.635 66.6454 329.717 64.7083 337 63C338.398 62.6423 338.398 62.6423 339.824 62.2774C347.928 60.4483 355.807 61.2393 364 62Z" fill="#F24034"/>
<path d="M411 185C411.66 185.66 412.32 186.32 413 187C412.67 187.66 412.34 188.32 412 189C412.33 189.681 412.66 190.361 413 191.062C414.236 194.694 413.754 197.194 413.094 200.914C412.78 203.311 412.78 203.311 415 206C414.73 208.341 414.387 210.675 414 213C414 214.155 414 215.31 414 216.5C414 223.118 412.69 229.617 411 236C410.732 237.176 410.464 238.351 410.188 239.562C408.955 243.13 408.21 244.181 405 246C405.424 242.537 405.915 239.279 406.938 235.938C411.056 222.002 410.843 206.841 409.023 192.551C408.996 189.598 409.749 187.651 411 185Z" fill="#73100D"/>
<path d="M414 82C414 82.66 414 83.32 414 84C414.66 84.33 415.32 84.66 416 85C415.67 85.66 415.34 86.32 415 87C411.617 87.7567 408.137 87.94 404.688 88.25C403.242 88.4047 403.242 88.4047 401.768 88.5625C400.838 88.6502 399.907 88.7378 398.949 88.8281C397.671 88.9504 397.671 88.9504 396.366 89.0752C393.733 88.9915 392.241 88.3398 390 87C390.33 86.34 390.66 85.68 391 85C389.35 85 387.7 85 386 85C385.67 84.01 385.34 83.02 385 82C386.65 82 388.3 82 390 82C390 81.67 390 81.34 390 81C398.407 79.3597 405.704 80.3199 414 82Z" fill="#F96153"/>
<path d="M407 156C411.173 156.436 415.308 156.874 419.438 157.625C421.983 158.247 421.983 158.247 424 157C426.812 157.812 426.812 157.812 430 159C431.187 159.423 431.187 159.423 432.398 159.855C440.735 163.523 448.397 171.218 453 179C452.505 180.485 452.505 180.485 452 182C451.072 180.546 451.072 180.546 450.125 179.062C448.343 175.972 448.343 175.972 446 175C445.67 175.66 445.34 176.32 445 177C444.31 176.241 443.621 175.481 442.91 174.699C437.377 168.777 432.99 164.911 425 163C422.551 162.168 420.118 161.318 417.688 160.438C416.516 160.024 415.344 159.61 414.137 159.184C411.65 158.245 409.338 157.253 407 156Z" fill="#BD1D14"/>
<path d="M458 203C459.746 205.619 460.387 207.038 461 210C461.33 208.68 461.66 207.36 462 206C465 208 465 208 465.679 210.25C466.022 213.192 466.13 216.038 466.133 219C466.134 220.134 466.135 221.269 466.137 222.438C466.133 223.613 466.129 224.789 466.125 226C466.129 227.176 466.133 228.351 466.137 229.562C466.135 230.697 466.134 231.831 466.133 233C466.132 234.031 466.131 235.062 466.129 236.125C466.006 238.856 465.615 241.341 465 244C464.67 244 464.34 244 464 244C463.837 242.047 463.674 240.094 463.512 238.141C463.156 235.907 463.156 235.907 461.496 234.305C459.167 230.716 459.469 227.069 459.375 222.875C459.313 221.168 459.249 219.461 459.184 217.754C459.155 216.936 459.127 216.117 459.097 215.274C458.921 211.159 458.469 207.09 458 203Z" fill="#CF281E"/>
<path d="M464 488C469.798 489.735 474.902 491.708 480 495C481.594 498.189 481.184 501.645 481.203 505.148C481.209 505.957 481.215 506.766 481.22 507.6C481.23 509.313 481.236 511.026 481.24 512.739C481.25 515.358 481.281 517.975 481.312 520.594C481.319 522.258 481.324 523.922 481.328 525.586C481.34 526.368 481.353 527.151 481.366 527.957C481.352 531.19 481.232 533.57 479.683 536.445C477.102 538.83 474.362 539.405 471 540.312C469.144 540.833 469.144 540.833 467.25 541.363C464 542 464 542 461 541C465.399 538.532 469.029 537.644 474 537C475.32 536.34 476.64 535.68 478 535C478 522.46 478 509.92 478 497C475.36 497.33 472.72 497.66 470 498C470.33 496.35 470.66 494.7 471 493C468.69 492.01 466.38 491.02 464 490C464 489.34 464 488.68 464 488Z" fill="#FABA34"/>
<path d="M428 79C424.215 80.237 422.461 79.4717 418.879 77.7617C416.024 76.6044 413.036 76.425 410 76C409.505 75.01 409.505 75.01 409 74C408.01 74 407.02 74 406 74C405.237 73.5398 404.474 73.0796 403.688 72.6055C400.789 70.8738 398.274 70.1018 395 69.3125C393.989 69.0611 392.979 68.8098 391.938 68.5508C389.205 68.0385 386.77 67.8931 384 68C383.67 67.34 383.34 66.68 383 66C376.913 64.0078 371.37 63.765 365 64C365 63.34 365 62.68 365 62C383.818 55.7273 411.092 71.6782 428 79Z" fill="#F34034"/>
<path d="M305 410C312.054 416.966 318.755 424.298 325 432C324.67 432.66 324.34 433.32 324 434C323.237 433.34 322.474 432.68 321.688 432C319.157 429.701 319.157 429.701 316 430C316.66 431.32 317.32 432.64 318 434C317.01 434 316.02 434 315 434C314.35 432.608 314.35 432.608 313.688 431.188C312.221 428.418 311.229 427.051 309 425C307.662 423.337 306.328 421.671 305 420C304.34 419.34 303.68 418.68 303 418C303 417.34 303 416.68 303 416C304.32 415.67 305.64 415.34 307 415C306.34 413.35 305.68 411.7 305 410Z" fill="#B31E15"/>
<path d="M313.887 123.641C314.933 123.819 314.933 123.819 316 124C316.007 129.114 314.956 131.47 311.402 135.184C309.929 136.617 308.44 138.035 306.938 139.438C306.179 140.169 305.42 140.901 304.639 141.654C302.772 143.451 300.893 145.231 299 147C298.67 146.34 298.34 145.68 298 145C299.65 143.02 301.3 141.04 303 139C301.02 139.33 299.04 139.66 297 140C298.673 135.772 301.672 132.925 304.812 129.75C305.334 129.196 305.855 128.641 306.393 128.07C308.856 125.573 310.34 124.082 313.887 123.641Z" fill="#FB6D5F"/>
<path d="M241 249C241.33 249 241.66 249 242 249C242 250.98 242 252.96 242 255C242.66 255 243.32 255 244 255C246 257 246 257 246.266 259.793C246.211 271.595 246.211 271.595 244 277C243.34 277.33 242.68 277.66 242 278C241.273 279.979 240.602 281.98 240 284C239.67 284 239.34 284 239 284C238.706 272.172 239.571 260.735 241 249Z" fill="#DD3024"/>
<path d="M236 129C237.32 129.33 238.64 129.66 240 130C239 133 239 133 237 135C234.875 135.625 234.875 135.625 233 136C233.33 136.99 233.66 137.98 234 139C232.688 141.188 232.688 141.188 231 143C230.34 143 229.68 143 229 143C228.897 143.598 228.794 144.196 228.688 144.812C228 147 228 147 226.5 148.438C224.769 149.95 224.769 149.95 224.562 152.5C223.84 155.711 222.595 156.112 220 158C218.894 160.391 218.894 160.391 218 163C217.028 164.683 216.034 166.354 215 168C214.01 167.34 213.02 166.68 212 166C219.357 153.135 226.898 140.71 236 129Z" fill="#D12018"/>
<path d="M476 505C472.108 507.021 468.273 508.71 464.125 510.129C462.989 510.52 461.852 510.91 460.681 511.313C459.466 511.725 458.252 512.138 457 512.563C455.727 512.998 454.455 513.433 453.182 513.869C439.15 518.663 425.076 523.336 411 528C410.01 528.33 409.02 528.66 408 529C408 525.7 408 522.4 408 519C408.33 519 408.66 519 409 519C409 521.31 409 523.62 409 526C410.315 525.719 411.627 525.424 412.938 525.125C413.668 524.963 414.399 524.8 415.152 524.633C417.207 524.17 417.207 524.17 418 522C419.725 521.479 419.725 521.479 421.956 521.074C427.031 520.044 431.818 518.503 436.707 516.813C437.595 516.509 438.483 516.206 439.397 515.894C441.258 515.257 443.117 514.619 444.976 513.978C447.82 512.997 450.667 512.026 453.514 511.055C455.328 510.433 457.143 509.81 458.957 509.188C459.805 508.898 460.653 508.608 461.527 508.31C462.318 508.036 463.11 507.762 463.925 507.48C464.617 507.242 465.31 507.004 466.023 506.759C468.06 506.022 468.06 506.022 470.114 504.884C472.481 503.774 473.59 504.139 476 505Z" fill="#FDD679"/>
<path d="M457 253C458.312 256.937 457.243 259.125 456 263C457.32 263 458.64 263 460 263C460.66 260.69 461.32 258.38 462 256C463.381 259.727 462.599 262.027 461.25 265.688C460.905 266.661 460.559 267.634 460.203 268.637C459 271 459 271 456 272C454.775 275.008 454.775 275.008 454 278C452.333 278 450.667 278 449 278C447.739 274.218 448.458 273.489 450.188 270C452.841 264.448 454.988 258.811 457 253Z" fill="#F54F41"/>
<path d="M406 320C406.495 321.485 406.495 321.485 407 323C401.873 326.738 396.887 328.893 390.875 330.75C390.194 330.96 389.514 331.171 388.812 331.387C374.528 335.634 359.206 335.15 345.535 328.867C345.029 328.581 344.522 328.295 344 328C344.33 327.34 344.66 326.68 345 326C345.568 326.193 346.137 326.387 346.723 326.586C347.881 326.977 347.881 326.977 349.062 327.375C349.817 327.63 350.571 327.885 351.348 328.148C352.661 328.57 352.661 328.57 354 329C355.044 329.358 356.088 329.717 357.164 330.086C361.954 331.227 366.409 331.293 371.312 331.25C372.218 331.258 373.124 331.265 374.057 331.273C375.353 331.27 375.353 331.27 376.676 331.266C377.85 331.262 377.85 331.262 379.048 331.259C381.235 331.17 381.235 331.17 383 329C383 329.66 383 330.32 383 331C383.577 330.691 384.155 330.381 384.75 330.062C387 329 387 329 389.125 328.5C391.227 328.107 391.227 328.107 393 326C393 326.66 393 327.32 393 328C394.608 327.237 396.211 326.464 397.812 325.688C398.706 325.258 399.599 324.829 400.52 324.387C402.789 323.118 404.292 321.934 406 320Z" fill="#D9251A"/>
<path d="M437 294C437.33 294.99 437.66 295.98 438 297C438.619 296.67 439.238 296.34 439.875 296C442 295 442 295 444 295C442.154 300.875 438.077 304.674 433 308C432.34 308 431.68 308 431 308C430.67 308.66 430.34 309.32 430 310C429.34 309.67 428.68 309.34 428 309C428.33 309.99 428.66 310.98 429 312C427.35 312.33 425.7 312.66 424 313C425.152 310.532 426.048 308.952 428 307C428.227 306.299 428.454 305.598 428.688 304.875C430.647 300.583 433.812 297.435 437 294Z" fill="#FC7062"/>
<path d="M357 484C362.108 484.872 364.709 488.222 368 492C368.809 493.197 369.602 494.405 370.375 495.625C373.239 499.826 377.275 502.244 382 504C384.572 504.464 384.572 504.464 387 504C388.666 502.511 388.666 502.511 389.812 500.5C390.231 499.85 390.65 499.201 391.082 498.531C391.385 498.026 391.688 497.521 392 497C393.534 500.069 392.55 502.701 392 506C388.867 507.044 388.01 506.934 385 506C384.67 506.99 384.34 507.98 384 509C378.806 507.065 375.822 505.15 372 501C371.34 500.67 370.68 500.34 370 500C369.567 499.196 369.134 498.391 368.688 497.562C366.727 494.586 365.353 493.997 362 493C362 491.68 362 490.36 362 489C360.35 488.67 358.7 488.34 357 488C357 486.68 357 485.36 357 484Z" fill="#151919"/>
<path d="M380 85C378.989 85.3712 377.979 85.7425 376.938 86.125C375.29 86.7466 373.645 87.3723 372 88C370.327 88.6381 370.327 88.6381 368.621 89.289C355.176 94.4958 342.869 100.729 331 109C329.006 110.342 327.003 111.671 325 113C325.368 110.348 325.687 109.262 327.777 107.516C328.49 107.098 329.203 106.68 329.938 106.25C330.648 105.822 331.358 105.394 332.09 104.953C334 104 334 104 336 104C336 103.34 336 102.68 336 102C337.65 101.67 339.3 101.34 341 101C341 100.34 341 99.68 341 99C341.804 98.8762 342.609 98.7525 343.438 98.625C344.283 98.4187 345.129 98.2125 346 98C346.33 97.34 346.66 96.68 347 96C350.205 93.8635 353.399 92.3398 357 91C358.155 90.5462 359.31 90.0925 360.5 89.625C364.259 88.2281 368.056 86.9723 371.875 85.75C372.986 85.3942 374.097 85.0384 375.242 84.6718C378 84 378 84 380 85Z" fill="#EC372A"/>
<path d="M305 74C305.66 74.33 306.32 74.66 307 75C305.928 75.5775 304.855 76.155 303.75 76.75C300.665 78.5145 298.446 80.4011 296 83C290.122 88.8776 290.122 88.8776 285.562 89.375C284.717 89.2512 283.871 89.1275 283 89C282.794 89.6187 282.588 90.2375 282.375 90.875C280.452 93.8465 278.334 94.1302 275 95C277.772 90.313 280.142 87.8663 284.938 85.0625C285.778 84.5676 285.778 84.5676 286.636 84.0627C288.415 83.0249 290.206 82.0109 292 81C292.608 80.6516 293.216 80.3033 293.842 79.9443C301.545 75.542 301.545 75.542 305 74Z" fill="#ED382C"/>
<path d="M325 434C329.334 437.187 332.619 440.864 336 445C335.67 445.66 335.34 446.32 335 447C333.68 446.01 332.36 445.02 331 444C330.588 447.603 330.846 448.784 333 451.812C333.99 452.895 333.99 452.895 335 454C331.851 452.631 329.952 451.125 327.75 448.5C327.229 447.892 326.708 447.283 326.172 446.656C325 445 325 445 325 443C324.01 442.67 323.02 442.34 322 442C322 441.34 322 440.68 322 440C321.34 440 320.68 440 320 440C319.34 438.68 318.68 437.36 318 436C321.161 437.37 321.993 437.989 324 441C325.125 439.167 325.125 439.167 326 437C325.67 436.01 325.34 435.02 325 434Z" fill="#A51B12"/>
<path d="M317 303C320.271 303.307 323.542 303.621 326.812 303.938C327.741 304.025 328.67 304.112 329.627 304.201C330.52 304.288 331.412 304.375 332.332 304.465C333.154 304.543 333.976 304.622 334.823 304.703C337 305 337 305 340 306C342 306.039 344 306.044 346 306C340.498 309.668 334.395 309.128 328 309C328 312.204 328.743 314.094 330 317C325.89 313.64 322.054 310.397 319 306C319 305.34 319 304.68 319 304C318.34 303.67 317.68 303.34 317 303Z" fill="#CA271F"/>
<path d="M521 200C521.33 200 521.66 200 522 200C525.575 216.809 522.952 235.292 520 252C519.67 252 519.34 252 519 252C518.804 250.564 518.619 249.126 518.438 247.688C518.333 246.887 518.229 246.086 518.121 245.262C518 243 518 243 519 240C520.086 235.642 520.215 231.323 520.316 226.855C520.337 226.086 520.358 225.316 520.379 224.523C520.444 222.078 520.504 219.633 520.563 217.188C520.606 215.524 520.649 213.861 520.693 212.197C520.8 208.132 520.901 204.066 521 200Z" fill="#F32C1F"/>
<path d="M327 463C328.812 463.188 328.812 463.188 331 464C331.454 464.784 331.907 465.567 332.375 466.375C334.431 469.696 336.398 470.62 340 472C340.66 471.67 341.32 471.34 342 471C342.248 471.639 342.495 472.279 342.75 472.938C343.816 475.187 343.816 475.187 346.125 475.75C346.744 475.833 347.363 475.915 348 476C348 476.66 348 477.32 348 478C349.32 478.33 350.64 478.66 352 479C352 477.68 352 476.36 352 475C352.66 475 353.32 475 354 475C359 480.357 359 480.357 359 484C353.108 482.333 347.938 479.488 342.562 476.625C341.189 475.902 341.189 475.902 339.787 475.164C334.804 472.531 329.874 469.829 325 467C325.66 466.67 326.32 466.34 327 466C327 465.01 327 464.02 327 463Z" fill="#81130E"/>
<path d="M449 186C456.015 192.24 459.142 203.923 460 213C460.996 235.223 460.996 235.223 459 244C458.67 244 458.34 244 458 244C458.005 243.249 458.01 242.498 458.016 241.724C458.037 238.295 458.05 234.866 458.062 231.438C458.071 230.256 458.079 229.075 458.088 227.857C458.126 214.358 455.702 201.884 449.734 189.672C449 188 449 188 449 186Z" fill="#750906"/>
<path d="M416.188 80.25C417.439 80.5233 418.691 80.7966 419.98 81.0781C420.977 81.3824 421.973 81.6866 423 82C423.33 82.66 423.66 83.32 424 84C423.34 84 422.68 84 422 84C422 84.66 422 85.32 422 86C422.66 86.33 423.32 86.66 424 87C419.345 87.9209 414.853 88.1221 410.125 88.0625C409.092 88.0558 409.092 88.0558 408.039 88.0489C406.359 88.0372 404.68 88.0193 403 88C403 87.67 403 87.34 403 87C406.96 87 410.92 87 415 87C413.528 82.9768 413.528 82.9768 411.055 82.1719C409.976 81.9631 409.976 81.9631 408.875 81.75C407.596 81.5025 406.317 81.255 405 81C408.871 78.3085 411.765 79.2417 416.188 80.25Z" fill="#F65446"/>
<path d="M386 334C385.01 334.66 384.02 335.32 383 336C382.67 336.99 382.34 337.98 382 339C382.66 339.33 383.32 339.66 384 340C377.07 340 370.14 340 363 340C363 339.67 363 339.34 363 339C364.048 338.927 364.048 338.927 365.117 338.852C366.027 338.777 366.937 338.702 367.875 338.625C369.232 338.521 369.232 338.521 370.617 338.414C373.179 338.204 373.179 338.204 375 336C368.07 335.505 368.07 335.505 361 335C361 334.67 361 334.34 361 334C377.708 332.667 377.708 332.667 386 334Z" fill="#FC7164"/>
<path d="M431 165C435 165 435 165 436.816 166.645C437.393 167.36 437.969 168.075 438.562 168.812C441.544 172.64 441.544 172.64 445 176C446.32 176 447.64 176 449 176C448.756 176.517 448.513 177.034 448.262 177.566C447.858 181.322 449.896 183.86 451.812 186.938C456.88 195.277 456.88 195.277 458 199C457.67 199.99 457.34 200.98 457 202C456.492 200.949 455.984 199.899 455.461 198.816C449.866 187.353 444.349 177.838 435 169C433.663 167.67 432.329 166.338 431 165Z" fill="#CF291E"/>
<path d="M316 124C315.511 130.357 315.511 130.357 313.062 133.438C311 135 311 135 309 135C308.34 133.68 307.68 132.36 307 131C304.03 133.475 304.03 133.475 301 136C302.458 132.681 304.295 130.349 306.812 127.75C307.479 127.044 308.145 126.337 308.832 125.609C311.436 123.677 312.831 123.668 316 124Z" fill="#FC7669"/>
<path d="M377 87C375.35 88.65 373.7 90.3 372 92C373.217 91.67 374.434 91.34 375.688 91C378.872 90.1968 381.697 89.7936 385 90C378.94 94.0401 371.167 95.2037 364 96C364 95.34 364 94.68 364 94C363.01 94.33 362.02 94.66 361 95C361 94.34 361 93.68 361 93C361.814 92.6017 361.814 92.6017 362.645 92.1953C363.36 91.8421 364.075 91.4889 364.812 91.125C365.52 90.777 366.228 90.4289 366.957 90.0703C373.209 86.7951 373.209 86.7951 377 87Z" fill="#FC786B"/>
<path d="M369.812 334.813C370.601 334.826 371.389 334.84 372.201 334.854C374.134 334.889 376.067 334.942 378 335C374.18 338.556 371.629 339.574 366.438 339.875C364.765 339.995 364.765 339.995 363.059 340.117C360.055 340.002 358.509 339.583 356 338C360.564 334.515 364.329 334.633 369.812 334.813Z" fill="#F96254"/>
<path d="M392 268C393.32 268.33 394.64 268.66 396 269C395.34 271.31 394.68 273.62 394 276C393.361 276.124 392.721 276.248 392.062 276.375C391.382 276.581 390.701 276.787 390 277C389.67 277.66 389.34 278.32 389 279C388.257 279.433 387.515 279.866 386.75 280.312C383.689 282.191 381.461 284.399 379 287C378.34 286.67 377.68 286.34 377 286C377.496 285.539 377.993 285.077 378.504 284.602C383.792 279.524 387.984 274.124 392 268Z" fill="#BC1711"/>
<path d="M409 195C409.33 195 409.66 195 410 195C410.838 200.122 411.183 205.063 411.187 210.25C411.2 210.956 411.212 211.663 411.225 212.391C411.235 216.149 411.138 217.794 409 221C407.356 219.356 407.87 217.456 407.867 215.195C407.866 214.219 407.865 213.244 407.863 212.238C407.867 211.211 407.871 210.184 407.875 209.125C407.871 208.105 407.867 207.086 407.863 206.035C407.865 205.057 407.866 204.078 407.867 203.07C407.868 202.171 407.869 201.271 407.871 200.344C408 198 408 198 409 195Z" fill="#EFE5E1"/>
<path d="M191 236C191.33 236 191.66 236 192 236C191.995 236.766 191.99 237.531 191.984 238.32C191.963 241.838 191.95 245.357 191.938 248.875C191.929 250.079 191.921 251.283 191.912 252.523C191.893 259.417 192.124 266.159 193 273C191.515 273.495 191.515 273.495 190 274C189.975 269.553 189.957 265.105 189.945 260.658C189.94 259.147 189.933 257.636 189.925 256.125C189.912 253.945 189.907 251.766 189.902 249.586C189.897 248.277 189.892 246.968 189.886 245.619C189.99 242.31 190.366 239.244 191 236Z" fill="#910A05"/>
<path d="M478 539C475.036 541.104 472.463 542.208 468.938 542.875C462.958 544.047 457.547 546.541 452 549C452.272 547.104 452.272 547.104 453 545C454.595 544.011 454.595 544.011 456.641 543.332C457.752 542.952 457.752 542.952 458.887 542.564C459.667 542.316 460.446 542.068 461.25 541.812C462.014 541.553 462.779 541.293 463.566 541.025C473.808 537.603 473.808 537.603 478 539Z" fill="#EECD9F"/>
<path d="M411 223C412.528 225.426 413.049 226.609 412.688 229.5C412.461 230.325 412.234 231.15 412 232C411.856 232.619 411.711 233.238 411.562 233.875C411.377 234.576 411.191 235.277 411 236C410.732 237.176 410.464 238.351 410.188 239.562C408.955 243.13 408.21 244.181 405 246C405.44 242.408 405.988 239.041 407 235.562C407.78 232.782 408.217 230.46 408.5 227.625C408.665 226.429 408.83 225.232 409 224C409.66 223.67 410.32 223.34 411 223Z" fill="#8D0E09"/>
<path d="M252 216C252.66 216.66 253.32 217.32 254 218C254.66 217.34 255.32 216.68 256 216C255.449 221.239 254.571 225.974 253 231C252.67 230.01 252.34 229.02 252 228C251.34 228 250.68 228 250 228C250 227.01 250 226.02 250 225C249.01 226.98 248.02 228.96 247 231C246 229 246 229 246.75 225.562C247.909 222.259 248.489 221.184 251 219C251.33 218.01 251.66 217.02 252 216Z" fill="#ED3E31"/>
<path d="M459 243C459.33 243 459.66 243 460 243C459.988 243.699 459.977 244.397 459.965 245.117C459.956 246.027 459.947 246.937 459.938 247.875C459.926 248.78 459.914 249.685 459.902 250.617C459.838 253.017 459.838 253.017 461 255C461.66 255.33 462.32 255.66 463 256C462.01 258.31 461.02 260.62 460 263C458.68 263 457.36 263 456 263C455.67 263.66 455.34 264.32 455 265C456.19 257.634 457.481 250.305 459 243Z" fill="#F14134"/>
<path d="M238 265C238.33 265 238.66 265 239 265C239 274.9 239 284.8 239 295C238.34 295.33 237.68 295.66 237 296C237.021 294.742 237.041 293.484 237.063 292.188C237.074 288.58 236.832 285.084 236.438 281.5C235.895 276.072 235.499 270.002 238 265Z" fill="#A11811"/>
<path d="M407 156C411.173 156.436 415.308 156.874 419.438 157.625C421.983 158.247 421.983 158.247 424 157C426.793 157.815 429.396 158.698 432 160C432 160.66 432 161.32 432 162C430.68 162 429.36 162 428 162C428.99 162.99 429.98 163.98 431 165C426.607 163.549 422.236 162.045 417.875 160.5C416.676 160.077 415.477 159.654 414.242 159.219C411.716 158.269 409.372 157.274 407 156Z" fill="#CA261B"/>
<path d="M408 519C408.33 519 408.66 519 409 519C409 521.31 409 523.62 409 526C410.315 525.718 411.627 525.424 412.938 525.125C414.034 524.881 414.034 524.881 415.152 524.633C417.207 524.17 417.207 524.17 418 522C419.855 521.402 419.855 521.402 422.188 520.938C422.994 520.774 423.801 520.61 424.633 520.441C427.416 519.922 430.201 519.431 433 519C430.12 521.364 427.554 522.681 424.016 523.824C422.614 524.283 422.614 524.283 421.184 524.752C420.216 525.061 419.247 525.369 418.25 525.688C416.775 526.168 416.775 526.168 415.27 526.658C412.849 527.446 410.425 528.224 408 529C408 525.7 408 522.4 408 519Z" fill="#FDDF87"/>
<path d="M402.562 151.812C403.678 151.798 404.793 151.784 405.941 151.77C408.885 151.991 410.521 152.466 413 154C408.375 155.177 403.921 155.114 399.188 155.062C398.005 155.056 398.005 155.056 396.799 155.049C394.866 155.037 392.933 155.019 391 155C391 154.34 391 153.68 391 153C394.899 152.089 398.562 151.836 402.562 151.812Z" fill="#B31811"/>
<path d="M296 399C298.667 401.667 301.333 404.333 304 407C303.67 407.66 303.34 408.32 303 409C301.68 408.34 300.36 407.68 299 407C299.33 408.98 299.66 410.96 300 413C300.66 413 301.32 413 302 413C301.67 414.32 301.34 415.64 301 417C301 416.01 301 415.02 301 414C300.402 413.752 299.804 413.505 299.188 413.25C296.714 411.836 295.566 410.349 294 408C294.33 407.34 294.66 406.68 295 406C295.33 406.33 295.66 406.66 296 407C296.8 403.713 297.097 402.29 296 399Z" fill="#A61B12"/>
<path d="M456 272C456.895 274.469 457.133 275.637 456.215 278.141C454.92 280.278 453.717 282.179 452 284C448.688 284.5 448.688 284.5 446 284C446.75 281.062 446.75 281.062 448 278C450.062 277.062 450.062 277.062 452 277C452.33 277.33 452.66 277.66 453 278C453.99 276.02 454.98 274.04 456 272Z" fill="#F95849"/>
<path d="M236 129C237.32 129.33 238.64 129.66 240 130C239 133 239 133 237 135C234.875 135.625 234.875 135.625 233 136C233.33 136.99 233.66 137.98 234 139C232.688 141.188 232.688 141.188 231 143C230.34 143 229.68 143 229 143C230.293 137.239 232.38 133.668 236 129Z" fill="#DE2A20"/>
<path d="M459 95C464.75 96.625 464.75 96.625 467 100C468.658 100.688 470.325 101.356 472 102C472.33 102.66 472.66 103.32 473 104C467.236 103.609 464.336 103.081 460 99C459.34 98.67 458.68 98.34 458 98C458.33 97.01 458.66 96.02 459 95Z" fill="#F55143"/>
<path d="M380 85C378.989 85.3712 377.979 85.7425 376.938 86.125C371.989 87.9761 367.092 89.9524 362.193 91.9301C359.478 93.0234 356.777 94.0742 354 95C353.34 94.34 352.68 93.68 352 93C358.556 90.3367 365.136 87.9072 371.875 85.75C373.542 85.2163 373.542 85.2163 375.242 84.6718C378 84 378 84 380 85Z" fill="#F13F31"/>
<path d="M406 71C411.3 71.5936 415.581 73.3737 420.375 75.5625C421.111 75.8919 421.847 76.2212 422.605 76.5605C424.406 77.3675 426.204 78.1829 428 79C424.216 80.2365 422.467 79.4687 418.883 77.7695C416.003 76.5926 413.075 76.3138 410 76C410 75.01 410 74.02 410 73C408.68 72.34 407.36 71.68 406 71Z" fill="#F5362A"/>
<path d="M464 226C467.185 231.551 466.566 237.932 465 244C464.67 244 464.34 244 464 244C463.67 241.36 463.34 238.72 463 236C462.67 236 462.34 236 462 236C462.14 234.52 462.288 233.041 462.438 231.562C462.519 230.739 462.6 229.915 462.684 229.066C463 227 463 227 464 226Z" fill="#DC2D23"/>
<path d="M419 310C419.99 310.33 420.98 310.66 422 311C418.299 314.925 414.45 317.946 410 321C409.34 320.34 408.68 319.68 408 319C412.625 315 412.625 315 416 315C416.309 314.361 416.619 313.721 416.938 313.062C418 311 418 311 419 310Z" fill="#D4231A"/>
<path d="M373 494C373.33 494.66 373.66 495.32 374 496C374.897 496.155 374.897 496.155 375.812 496.312C378.967 497.304 380.117 499.377 382 502C380.25 502.688 380.25 502.688 378 503C374.36 501.073 373.246 498.843 372 495C372.33 494.67 372.66 494.34 373 494Z" fill="#B61D15"/>
<path d="M404 476C404.33 476.66 404.66 477.32 405 478C404.058 479.648 403.11 481.292 402.125 482.914C400.232 486.423 399.14 490.192 398 494C397.01 494 396.02 494 395 494C395.548 489.382 397.59 486.019 400.062 482.188C400.44 481.59 400.817 480.993 401.205 480.377C402.13 478.914 403.064 477.456 404 476Z" fill="#1B2525"/>
<path d="M406 320C406.33 320.99 406.66 321.98 407 323C401.285 327.039 395.774 329.293 389 331C390 328 390 328 393 326C393 326.66 393 327.32 393 328C394.608 327.237 396.211 326.464 397.812 325.688C398.706 325.258 399.599 324.829 400.52 324.387C402.789 323.118 404.292 321.934 406 320Z" fill="#DE251B"/>
<path d="M389 157C393.29 157.33 397.58 157.66 402 158C401.34 159.65 400.68 161.3 400 163C395.201 161.972 392.508 160.508 389 157Z" fill="#780E0A"/>
<path d="M311 121C311.66 121.99 312.32 122.98 313 124C312.256 124.636 312.256 124.636 311.496 125.285C306.797 129.342 302.328 133.55 298 138C297.34 137.34 296.68 136.68 296 136C296.748 135.336 297.495 134.672 298.266 133.988C299.261 133.097 300.255 132.205 301.25 131.312C302.712 130.007 302.712 130.007 304.203 128.676C306.737 126.252 308.888 123.791 311 121Z" fill="#E42F23"/>
<path d="M392 497C393.534 500.069 392.55 502.701 392 506C388.867 507.044 388.01 506.934 385 506C384.67 506.99 384.34 507.98 384 509C383.34 508.34 382.68 507.68 382 507C382 506.34 382 505.68 382 505C382.908 504.794 383.815 504.588 384.75 504.375C388.757 502.68 389.895 500.725 392 497Z" fill="#1A2525"/>
<path d="M286 387C286.99 388.32 287.98 389.64 289 391C288.34 391.66 287.68 392.32 287 393C287.395 395.963 288.598 398.383 290 401C289.01 400.67 288.02 400.34 287 400C287 399.34 287 398.68 287 398C286.34 398 285.68 398 285 398C284.34 396.02 283.68 394.04 283 392C283.66 392 284.32 392 285 392C285.33 390.35 285.66 388.7 286 387Z" fill="#A21B14"/>
<path d="M333 192C333 195.287 332.6 195.961 330.812 198.574C330.361 199.241 329.91 199.908 329.445 200.596C328.968 201.286 328.491 201.976 328 202.688C327.523 203.389 327.046 204.091 326.555 204.814C325.376 206.547 324.189 208.274 323 210C322.67 209.34 322.34 208.68 322 208C323.18 205.758 323.18 205.758 324.875 203.125C326.865 200.025 328.124 197.55 329 194C331.062 192.75 331.062 192.75 333 192Z" fill="#DF2019"/>
<path d="M415 154C420.774 154.481 424.959 156.185 430 159C429.01 159.495 429.01 159.495 428 160C426.824 159.505 426.824 159.505 425.625 159C422.685 157.88 421.906 158.225 419 159C418.01 158.34 417.02 157.68 416 157C416.66 157 417.32 157 418 157C418 156.34 418 155.68 418 155C417.01 154.67 416.02 154.34 415 154Z" fill="#B51910"/>
<path d="M265 102C265.66 102.33 266.32 102.66 267 103C263.685 107.696 259.637 110.725 255 114C254.34 113.67 253.68 113.34 253 113C254.622 111.351 256.248 109.706 257.875 108.062C258.78 107.146 259.685 106.229 260.617 105.285C263 103 263 103 265 102Z" fill="#EA3C31"/>
<path d="M438 84C441.605 84.629 444.849 85.5884 448.25 86.9375C449.121 87.2765 449.993 87.6155 450.891 87.9648C453 89 453 89 454 91C450.7 90.34 447.4 89.68 444 89C443.67 89.66 443.34 90.32 443 91C442.67 89.35 442.34 87.7 442 86C440.68 85.67 439.36 85.34 438 85C438 84.67 438 84.34 438 84Z" fill="#F63D31"/>
<path d="M415 81C421.152 81.5859 421.152 81.5859 423 82C423.33 82.66 423.66 83.32 424 84C423.34 84 422.68 84 422 84C422 84.66 422 85.32 422 86C422.66 86.33 423.32 86.66 424 87C421.69 87 419.38 87 417 87C417.33 86.01 417.66 85.02 418 84C417.01 83.67 416.02 83.34 415 83C415 82.34 415 81.68 415 81Z" fill="#F85C4F"/>
<path d="M476 565C477.32 565 478.64 565 480 565C480 566.98 480 568.96 480 571C477.333 572.333 475.833 571.671 473 571C474 569 475 567 476 565Z" fill="#FCCB57"/>
<path d="M209 334C213.33 337.849 215.656 341.723 218 347C217.01 347.495 217.01 347.495 216 348C215.361 347.175 214.721 346.35 214.062 345.5C213.382 344.675 212.701 343.85 212 343C211.67 343 211.34 343 211 343C210.34 340.03 209.68 337.06 209 334Z" fill="#871913"/>
<path d="M305 74C305.66 74.33 306.32 74.66 307 75C305.928 75.5775 304.855 76.155 303.75 76.75C301.316 78.1183 299.824 79.1866 297.875 81.25C296 83 296 83 293.25 83.25C292.507 83.1675 291.765 83.085 291 83C294.618 78.5599 299.718 76.0151 305 74Z" fill="#F32B20"/>
<path d="M356 620C356.33 620 356.66 620 357 620C358.41 626.738 357.666 633.19 357 640C356.67 640 356.34 640 356 640C353.714 624.571 353.714 624.571 356 620Z" fill="#373737"/>
<path d="M412 203C412.99 203.99 413.98 204.98 415 206C414.688 209.25 414.688 209.25 414 213C414.021 214.258 414.041 215.516 414.062 216.812C414 220 414 220 412 222C412 215.73 412 209.46 412 203Z" fill="#84100B"/>
<path d="M207 177C207.66 177.33 208.32 177.66 209 178C208.385 184.523 208.385 184.523 206.438 186.938C205.963 187.288 205.489 187.639 205 188C204.045 185.83 203.856 184.437 204.602 182.176C205.359 180.432 206.176 178.714 207 177ZM204 188C204.99 188.495 204.99 188.495 206 189C206 189.66 206 190.32 206 191C205.34 191 204.68 191 204 191C204 190.01 204 189.02 204 188Z" fill="#C6221A"/>
<path d="M478 539C473.437 542.533 469.504 542.324 464 542C466.264 539.736 467.371 539.482 470.438 538.812C471.22 538.633 472.002 538.454 472.809 538.27C475 538 475 538 478 539Z" fill="#EBB873"/>
<path d="M335 454C335.99 454.495 335.99 454.495 337 455C337 455.66 337 456.32 337 457C338.32 456.34 339.64 455.68 341 455C341 455.99 341 456.98 341 458C341.66 458 342.32 458 343 458C343 460.31 343 462.62 343 465C342.34 464.67 341.68 464.34 341 464C341 463.01 341 462.02 341 461C340.34 461 339.68 461 339 461C339 460.34 339 459.68 339 459C338.01 458.67 337.02 458.34 336 458C335.312 455.938 335.312 455.938 335 454Z" fill="#991A12"/>
<path d="M411 223C412.619 225.572 413.044 226.677 412.625 229.75C412.419 230.493 412.213 231.235 412 232C411.01 232.33 410.02 232.66 409 233C408.67 233.66 408.34 234.32 408 235C408.114 233.187 408.241 231.374 408.375 229.562C408.445 228.553 408.514 227.544 408.586 226.504C408.723 225.678 408.859 224.851 409 224C409.66 223.67 410.32 223.34 411 223Z" fill="#891814"/>
<path d="M255 392C255.083 392.619 255.165 393.238 255.25 393.875C255.806 396.161 255.806 396.161 257.938 397.188C258.618 397.456 259.299 397.724 260 398C260.66 398.33 261.32 398.66 262 399C261.67 399.99 261.34 400.98 261 402C257.735 400.196 256.111 399.166 254 396C254.375 393.812 254.375 393.812 255 392Z" fill="#801A15"/>
<path d="M308 274C308.33 274 308.66 274 309 274C310.102 278.409 310.077 282.484 310 287C309.01 287.33 308.02 287.66 307 288C305.842 284.525 306.227 282.863 306.938 279.312C307.132 278.319 307.327 277.325 307.527 276.301C307.683 275.542 307.839 274.782 308 274Z" fill="#F33126"/>
<path d="M244 120C244.925 123.702 245.082 124.635 244 128C242 128 242 128 238 127C239.98 124.69 241.96 122.38 244 120Z" fill="#E2281F"/>
<path d="M312 458C314.97 458.495 314.97 458.495 318 459C318 459.66 318 460.32 318 461C320.97 461.495 320.97 461.495 324 462C324 462.99 324 463.98 324 465C319.692 463.434 315.938 461.317 312 459C312 458.67 312 458.34 312 458Z" fill="#85150E"/>
<path d="M439 173C446.916 179.311 446.916 179.311 449 184C448.67 184.66 448.34 185.32 448 186C444 181.25 444 181.25 444 179C443.01 178.67 442.02 178.34 441 178C439.812 175.438 439.812 175.438 439 173Z" fill="#6A0906"/>
<path d="M405 468C405.33 468 405.66 468 406 468C406.747 473.979 404.323 477.324 401 482C399.569 479.138 400.4 477.066 401 474C401.99 474 402.98 474 404 474C404.33 472.02 404.66 470.04 405 468Z" fill="#EA4C3B"/>
<path d="M387 154C387.99 154 388.98 154 390 154C389.67 155.32 389.34 156.64 389 158C384.71 158.66 380.42 159.32 376 160C378.313 157.687 379.479 157.504 382.625 156.875C383.442 156.707 384.26 156.54 385.102 156.367C385.728 156.246 386.355 156.125 387 156C387 155.34 387 154.68 387 154Z" fill="#AD0E0A"/>
<path d="M295 82C291.554 87.7846 291.554 87.7846 288.75 88.875C288.173 88.9163 287.595 88.9575 287 89C287.375 86.0625 287.375 86.0625 288 83C290.463 81.7686 292.28 81.9284 295 82Z" fill="#F14235"/>
<path d="M195 211C197.326 214.635 197.314 217.76 197 222C196.34 222.66 195.68 223.32 195 224C194.803 222.585 194.618 221.168 194.437 219.75C194.333 218.961 194.229 218.172 194.121 217.359C194 214.995 194.304 213.249 195 211Z" fill="#B92D25"/>
<path d="M324 113C321.422 115.648 319.084 117.944 316 120C316 116 316 116 317.188 114.25C319.559 112.615 321.181 112.771 324 113Z" fill="#E83326"/>
<path d="M368 331C369.32 331 370.64 331 372 331C372 331.66 372 332.32 372 333C373.65 333 375.3 333 377 333C377 333.33 377 333.66 377 334C372.71 334 368.42 334 364 334C365.32 333.67 366.64 333.34 368 333C368 332.34 368 331.68 368 331Z" fill="#E43329"/>
<path d="M290 85C287.166 88.2542 285.314 89.5207 281 90C282 87 282 87 284.375 85.25C287 84 287 84 290 85Z" fill="#F12A1F"/>
<path d="M323 309C325.375 309.625 325.375 309.625 328 311C329.312 314.125 329.312 314.125 330 317C328.827 316.049 327.662 315.089 326.5 314.125C325.85 313.591 325.201 313.058 324.531 312.508C324.026 312.01 323.521 311.513 323 311C323 310.34 323 309.68 323 309Z" fill="#C21812"/>
<path d="M292 140C292.66 140.99 293.32 141.98 294 143C292.35 144.98 290.7 146.96 289 149C288.67 148.01 288.34 147.02 288 146C289.938 142.812 289.938 142.812 292 140Z" fill="#E03024"/>
<path d="M390 497C390.66 497.33 391.32 497.66 392 498C390.02 500.97 390.02 500.97 388 504C387.34 503.67 386.68 503.34 386 503C387.75 498.125 387.75 498.125 390 497Z" fill="#EB4B3A"/>
<path d="M406 320C406.33 320.99 406.66 321.98 407 323C404.188 325.062 404.188 325.062 401 327C400.01 326.67 399.02 326.34 398 326C400.64 324.02 403.28 322.04 406 320Z" fill="#D71F16"/>
</svg>
